<mxfile host="app.diagrams.net" modified="2022-09-30T13:06:30.135Z" agent="5.0 (Windows NT 10.0; Win64; x64) AppleWebKit/537.36 (KHTML, like Gecko) Chrome/105.0.0.0 Safari/537.36 Edg/105.0.1343.53" etag="BPvqmn0kuKgkUay0IQkJ" version="20.3.3" type="github">
  <diagram id="eAYytcHcg5_khRJPWwhl" name="Page-1">
    <mxGraphModel dx="2323" dy="836" grid="1" gridSize="10" guides="1" tooltips="1" connect="1" arrows="1" fold="1" page="1" pageScale="1" pageWidth="827" pageHeight="1169" math="0" shadow="0">
      <root>
        <mxCell id="0" />
        <mxCell id="1" parent="0" />
        <mxCell id="KdTVUO_jPhQBWrvJSr6B-8" value="" style="rounded=0;whiteSpace=wrap;html=1;fillColor=#EFEFEF;fontColor=#333333;strokeColor=#666666;" vertex="1" parent="1">
          <mxGeometry x="-630" y="100" width="1350" height="400" as="geometry" />
        </mxCell>
        <mxCell id="KdTVUO_jPhQBWrvJSr6B-11" value="" style="shape=image;verticalLabelPosition=bottom;labelBackgroundColor=default;verticalAlign=top;aspect=fixed;imageAspect=0;image=data:image/png,iVBORw0KGgoAAAANSUhEUgAABUgAAABOCAIAAAB9gWtPAAAAAXNSR0IArs4c6QAAAARnQU1BAACxjwv8YQUAAAAJcEhZcwAADsMAAA7DAcdvqGQAAAASdEVYdFNvZnR3YXJlAEdyZWVuc2hvdF5VCAUAAB4sSURBVHhe7d0LWFP33Qdw2rq2e7e9e9bt3dZ1e7s9fdu1XbtufffO3rvtrX3XWrd21d6k1kutilfwgqig3JMA3hW5JSEkIdzCNYir65y4tipahYoRkHuAKAIBCQkJyfv/n3MCOYckoIKV9/3+ns+TJ5fjOf/zP0eefPM/F7+/o1AoFAqFQqFQKBQKhZqy5XfvhkoAAAAAAAAAmHJOnDo7MDCAYA8AAAAAAAAwJSHYAwAAAAAAAExhCPYAAAAAAAAAUxiCPQAAAAAAAMAUhmAPAAAAAAAAMIUh2AMAAAAAAABMYQj2AAAAAAAAAFMYgj0AAAAAAADAFIZgDwAAAAAAADCFIdgDAAAAAAAATGEI9gAAAAAAAABTGII9AAAAAAAAwBSGYA8AAAAAAAAwhSHYAwAAAAAAAIzLs2F/mxerCd15YM8+iTI1OlcWoU2PVaSJ9ibt3CDeu0CS+/y2I4J/chMg2AMAAAAAAAD48timfy6Mku3dsS1z/6bMA5uzkjdnp2zOTduqlW3TyiLyZFEFiljyyD5JToxdlpD9yy2fCWYyeRDsAQAAAAAAADx7cOPxZVFJ8h1rNYmbM3Zv0CRtyUreqkkKzU4Jy5VGEFpZVI4sMos+idbKo/PTYwitPCo3NTxwh+rnm04KZjgZEOwBAAAAAAAAPHgtLGdXTCBJ9co9wep9IZmJm0meVyduykzakp26VbpzLT0UXx7plue5J0SBnD5qMrbPFpUKZjvhEOwBAAAAAAAAhBZt3ZcsXpkWt0a2Y212Uqhi13rlno1ZyWE5qaEk1edKw5kR+0iigIn0NNXL6ZMCRSxRnCEuUorzlaKDWdtXxisEM59YCPYAAAAAAAAAPHuV+XsiPkyWrJQlrFHsWpexe51y74aspM2aJDponycLz0ndls+MzzORPjJPTl6SkB+eJ48kqd7w1FPuAhf/STVzqWAREwjBHgAAAAAAAGBEZtnnl2tO1J8uTYtfkSxenhizRL0vmAT7nJTQ3LQw5b4NWcmbtbIIojCDBPvIgvRorSy8UB6TL4/JSxflp0ezeb7VFez9/PzI4+RlewR7AAAAAAAAAM6B4i+6L568dOFzU9NZY93J1LiV6TuCNPuCk0QBWXS4fkueNDRPGpaXtrUoI6ZIISJ5vjA9liAv82QR5FGnjmPz/JGIVe7Bnli2QiJY3IRAsAcAAAAAAACgVsrOdtZ+RvQ2nemqP93XVt3TcOJA7FLV/uDM5E1ZqZvVicE5qfQud9nJm/OkWwvSSZKPypeHFyoiCxXRNOpnxBRmiNgYP2w42Nc9/+zSefsFC71xCPYAAAAAAAAAlY9vq+yoO93ffHagtcrUdMbUdLa74UxnXUV3/Yn0HYHqxI05qfRQfII80Uq3FWfElGTEEjq1mOR5erU8hYgO3SvFbIz/5O1Z4fff/+73v787OoB958Lzz1547vePrTkmWPQNQrAHAAAAAAAAqNxfcqan7jNTU1V/S21fe1Vf83lTw5m+1sre5rNHCxNV+4OzU0I19Oz6bXnS8EJFdLGSHn6vU8cWqyQl6riijCiS6ouVMUVKbsQ+P52O3rOfsu9Eb1pMHnf9ZaNg0TcIwR5uFf5H+k1DTkunKUQs/AgAAAAAAGBSPRVTZddr2nJ/MPC32/qP3Wuu3T/QUdnTeKa3uYroqT+tSdqSnRySnRqaJ92aTy+YF8Uee88ch09DPgn8JNjny8ILM2LYGF+kpHe8K0iPINh3YrYsKc2g4/m/XXlY0IAbgWAPt4Zck9FmK9c1q40OU53xNcGnAAAAAAAAkylelmjU+DmP+A3q/RxN37O1fLu36i1r+8W+lqr+li9NrV9eufi5ev/6POm23LTwfHkESfLFGeISVUxppkSniilWRJVqEoqUEjo+r4z3Y6owQ5SfHlMgC8+Xhs97ewZ5J3XHxlJ1wn8+8fA3py8QNOBGTHywVxudvBpymIx96sJawWTDhNO7quakcEpWeJ2dfmzuCx/1kRf6gKO9NVcdzFydTpu9Rn85wPOYcFcNN5GnMnaNmp4z/aSFm4Y2Wy/4dJTakFP9TcPtof3TK8323D9eOseiHjUlAAAAAAAAXLcvVT+0HvIbOnf3d+68a/X8N9cu+dBpnGltLbd01PaRYN9wpq+t+tynBTmpoZqkTUUKUW7a1hIVPbu+RCUqy0woVUkOaXYcVMeTjwpUsUXqOJLqS1QSJuqLdJnxuswE8lisFBElKrEyfY+gATdi8oM9V/aqo/WCKVmTHOz13PSC6u0L95DtrzPYJxqYCYaYR8Nlwac84rbyXmYyQXlZna8m2Lv9TsEV1zzaP5b2rjluE9MWjvSMPuBoX5OZ+SdDDlN7d8hu3pSmurbhl/duaCs3u97xskSfqz96Y9nLi9k5NyTWWU3s5hiyGxs6vfyOMyayiOF5Mor7TOw79ImHYleH7nLDG5SumoftxZtmgz7klMVkY2ZBf+gxidz6jdFRYaX9PJ17SbvOQ7ltJn6xa+F9dchz/iawXLUcPtLgmnLM5l2D6erL5V2u/5Jma/nIUgjegowt3W4nZfja98bx30TQgS67Ddp2u4XdVWz2mlMGdgKfM5zI3hjF26475rZj29ZymPx5MXTyVjOlu4msehXpZ7f/cQAAAADA9+ddVV1ZfoP/8BMv/Jfl789YNPM3rzz3cOC8l+w1/gMd58xt1b2NlT0tlV31FQXp4erEjYq96+nV8pTRJMaXKKOTJEtU+4Iy9gUmxy8ldkUsSI1fnpkUrJWFFWWElyijDmVLDmbHlWri/pqzU6eS6NQSrTz6xYijgmZct0kL9lzGqA061mdkvwRb+0X8KflcWcV7fmZdU7CfftTM5hVTU2cQ+f4trt/pyvnG6hbBxO5cPwfwv0x7ZqSZgUxZxyzK2r9TOMGwenU7N1BvbOkKT6Jj+9OTGkXH+2qMvR5Xh9+ZN4uXLOpKjI6a4yO/0QyHK8L/pMXidDRVdQRomgMOdlWRjHF15AcUMqXPYO9xiRx+DGbRxnj89Se8xu60WXUHG+eIa/0LOyuuCgPhuPlMUxwPzbjWYD/nOOk3e8Uxg/9u/Rxlh67TQfvNffrD/Uz4tGpT3N5kuPe/i7ee8bk6bu2cITNIm8j+bzucTV+O3bzxS+mqsdHLKIiU9TPInl9lJXMu13EHuQRVk78UJF2z+093DfmD0Nntz/1bulI+9j2Wp/2E4bkD28qvkl20X1rYMGN3Q8ixfhOZ/0n3Hxo8zHAie2MU77vueLfdnLPkj5FF7fZL1pwvyDvsiiPYAwAAAHgVnXems/jHQx/fmbX+u6ve+eNf/vuxl39936zf/sTWOMvcUmkx1JJs39N4pvPiidZzR9gT7EtUoiJFeFbSxlJ1VLEisixLrFPHFiqiyjQSkuTpFfXogfoinSquWCUp1SSUZIjLNAllmu3FKvK+pDRz+0c7CgXNuG6THeypID2b7O3lhSOTjTIZwb5e28nMk/ebAjOoRcrnHLilCL5Me0QyA5mQ5HlNL7PqjopDo6ZhHWKmJN+7m4zCkUMvRnfmzeAz2FusDqfNnOgW112bjA6K8mIDSXFDzqYvuCRGprwpwd5A0pr7gqYfIzuWVesWdcbNZ5rieGgGr7XjCPbqdppgR3aJbLIjkbjrerlBLzU4LQ1dZL81Vje73uSMDrfee8bn6gjbebmKbLuzdNuN1bxrIGpw0P8pI9uiXtdF209nLu5kluiWq+mCnFVH2Zd0pbzvexxP+wnhuQPZxKuTDU9WubPJIfjno2c4gb0xio9dd9zbjhmfdzshiPkbyB2qgGAPAAAA4FVBxQVHvaKvxM95/I57br/9zRefmvHME/Yrbzkurh5oqTK36PuaK82Gqsu1n125WFGoiMxJ3VqWFV+qluiUkrLM+Io1C06vmn9QE6tTR59aNa8sfRuZ5uiHb5I3K1Z+cGrVghJ1nC5TcmrVfJ1STA/IV4lI1I9KVAiacd1uRrBnvneSEiQigckI9jSc0OIfHs/NwWfYc03ju80UNyVdBLcK3r46h9Sw8+QGQsfDQ2feBF5jNpMYT9EjFCyGy2y2GQlXhUzS4CUcPQ0V7dwGJVPye2aSgj1NcU6zOVE95sUOxuQzTXE8NIPXWi+r5j4N/eVryKrzdh0KMdcMGkR7e4P4n44Ot957xufqCNtJtzIbg8do3jVoJtHa0mR0f3OOrlP7WRsdlD5KQ6yON6JOp3ftM8xKedv3XDztJ147kJ5B02XiHcqRbdSeMrr38OgZTlxvjOZj1x3/ttOz3cL99JBiIjm/6hg7QwR7AAAAAK/O+T/oaP6s/+QiR+nt9uO3DV389lD9N4fqX3Q2FNmMNZaOWku7fqD9vKnxTHf96c/K5Ok7g0oyoun18NMjizKi2Cveb1rz3kE5vfq9+pFHmn73AvvmsFIpvVT+kSeeKFHGlSglJer45LT9gmZct5sR7OmXY1qCb+0CkxDsmS+1pATfZZmjVUnxvyjzudrsaxoGzR6kmk7Rr87cyfa9vQHCySiuZ1zH6nMv2fKyOrxphms8634jaE7glSslcolxOj1IwVFxmK4ymyLop8c9JFg6BOraoGRKn8GeV76iMoc2hlfDe47scnkXPeXB0mOpqDLSUzBG/tU18ZmmOFyfuL3Db+04gv29YnqmN12Fq9aqOu4cjWEjcZSOaQuPBxnp/xHeesbn6ri3U9yc6HYovu/mXQufwdJTR7mtHdfPnvc9F0/7idcO9NR1Qh5mOGG94YnXXXfc2254nJ/5Y0v/1g2ZE7mPEOwBAAAAvDL5f8sy+07nlSqbocJxbqu90n9Av8XZdtLeecp2uc52qXagXW9uq7Z2XOhtOnvun7klKlG+PKI0U3woK64gPZKN7pvW+B9SRJMnJNg3v/g8eZL36KOxP/sZ+2n82tnkkQR75d6Nhekx+YqIC8/9XtCM60aCfXd396SeY9/PXWass9vnec6TEOzpd19awu+yXIwUJDQebik+p6G43w5shzX0pevy+J5/wuD3jOslW15WhzfNcI1n3W+Ep4jFGA6x+kQDd0z1SDq60WDvcYkcT4FtuDEe6efoOg83MNchG7JXHeOdOD1uPtMUx0MzeK31smqj12hGtlFbZzHSH50cTdVtroO96S9HrtMZmEPK+SPeI/0/wlvP+Fwdbtd1lc3Gv6ydt+ZdkwkI9p73PRdP+4nXDvTUdUKeZkhNRG9443HXHXPbuXcdcxoFXWXmEImGDtf7CPYAAAAAXtnmTXP6T3Msvb23rbav5vPBps8dhrOWdr3tUv3QlXpL+3mrsabfcK63uXLAcL7muLZYEVOqEuvU4rKseIKN7iTYl6Vzwb6JCfZ+fn46lYT99JCCPiHBvkyToFNLDmbtaH3qaUEzrtukjdgLymZRu53L6skkBHvupHfhd9kJHLHnZjXcGNcxAsMnlrvjeobfct+r4/GfTDqvMdstMYovV9lox2qH09Gtcii+QK2owe42aHlNfKYpjodm8FrrZdU8rRFLH3CK7FTcT0Xseea8GjJL3U4h8ZROvfWMz9Vxaye9iJ3bqex8/OZdGyZn8n+YmJ7UGKCsp8F4PIfie9v3XDz0qvcO9HAo/u6GAE3DDLd3vG8m1o30xpjcd93xbjsW/UGts3sO/QPofogHgj0AAACAV/b3p9nn32VbeLdJPLOvpdLW/uVge7X9Up3tUo2l4wJJ9ea2anPb+b7mMwPt57sbTxUrRQczt+vU8QezEsqyd7DRPXjle+XRq8kTfrCPYz8tGz4UXx1XqkkgJjbYDw4OTmawt9npbavGPhx6EoI9EwZoeT7HfqwkSUuQ4gSY01k91ugba7Hftmnx0ovv1bl1g/0G7vLgJrLVuE021sXz2vk5irtYGvPpBAZ73knFDB0TgXxduNEbugiuhQz2IGd++PTQDF5rxw72zNnserd7NIiZ658dp8/p1eZ4+xLtZLdLo11rsPe+Ou7tFNMmuTalr+ZdK/bieW5XsvR58TwZsyndLp7nfd/jjN5PfHQge/E89+vkj+PieRPZG0K+dt1xbzsWvU6ntbzOxr8oA4I9AAAAgFc97/+r44NvDHz0gH3VI47jBZb22oHWL63tF2yXa4eu0EH7wfYakupNjTTY9zZXpe9el52yid7xjt6jnhuT//jxx9knf/zOd0aCfSY3nn9QxgX7g1nbCzPone0n9lD8oaGhSb543rhMRrCnI360PF4VXzBYx8ctZYxg77o43+jyNETMfBen5X6nPd+rcysH+5G797k2Ge92d4Wd5T3MncBcA7/MrQfpp4uS9DNkHfREZZtF7S2Z8I0ObN7jK9Mqs0VL7xmmn5PraoZwsvFgjvoevv0YcwO2UXfO89AMXmvHDvbsTc5s5fQOapX8nqExUnD0B02qbme1XEuw97k6/HbOoS+5K8Z7b961k9Hb3Znau0WyWnqjxzFvdzeSS8fY91ij9hOfHSimt7uz9PRJc+unj/t2dxPZG0I+dt1r2HYM7s8p7zcIBHsAAAAA7y4sftT5wb/aVz7sWHyfJeaNgZYT1tYvza1n7FcabVcaB4x1lo4LA+36q63nyGNfW7X+RGGhIro4gx6QTyj3BbPpnbU24G022Lsrk8e6vyxVSY794Q1BM64bCfYOh+P/arBnB+Voue5jz14VjBTvhtijcUvxHezZG93xh3Bdp9k7Kg6PvOniWkcmvZBgQL6v06NtSXlZna8u2AuKjQ2jEiOT09w2mT7gaF8Tt46kHPyT23mfmnr6pcNX//a6RM7ofMU2RlBc28hW1ltM7D0Whxymrr7EMU4D8Y7Mqo4525nOym5s6AwQHqA+nmDPL6a7+GtUG3LKbHT1jOWqRaulPeN+FbQRdK8bubGCt2AvqJGe8bY6wnDI/P5lZKOj5+Zdn+nqzooe9j8XndVh3pn8+pBTIxuOHukz0ttj7nuUYD8ZuwN3d+iMduYW9+R/ma3qlEFwoI2nHW8ie0PIx657DduOYm4yKji6BMEeAAAAwKuDK962Lfo3x+qnnYFP2pc9aNJILB16q6HSYjjvNLWSbG+7TLO9ue18v6GaBPuKv6nyZJFaeUSeLEIrpxfGPzN7JpvY/fz8slLCKhe8NZzhWQfldMR+WLEqTjVzqaAZ140Ee/I98asM9tz0o0oQlobRr9qeysv0DWojewA8r0yGTn/hlDyupfgK9nToj5TgGviu0+zdrlk1Yrqu18h+axeUl+7y0jnCL/G3pFqR3kaH6Ks7XhN+BAAAAAAAcAsRB8cNfnS/dcUvnNFzHR/d74x5x9J63tp61n65zt7VNNjZQCL9QLu+t7mKBHuz8cKXn+blpm3LSQkrIPFeGl6sjClWRn3ta9NIqi9UxBYrY/Pl0W++9iJ5yVbwKv8SdRz3gqlSlfhbz68QNOO6/Z8P9vxBMJKJmXE59+tjeTSOYM8NvwsuBjYyLO+tB3YbtC224fbQcbkeS/lnwqFC1lQO9pT/ka7rHy0HAAAAAAC4KV7f+okj4JfOpT8divF3Ln/CtvpX5k/U9la9va3W1lVPh+vb9Nb2C1dbvzQ1nulrqz6mS81NC9Mkb1LtD86TbtXKIwszYooyYjIPhBQqRAWKWKIwQ1SkFGvl0ewTVrFKQtCL56njX4z4h6AZ123igz0AAAAAAADA1FK/dcnQR/c71j/nDPytY9F9dlmQraPOzuR5q7Fm8HLdoLF2wHC+v/Vcf4detX9TVnJYVuoWTfJmrWxbniwiPz0qVxaevmddbgp5HkPSO8nzJao4NsznyiLVB0LJE11mPBvslYq9ggbcCAR7AAAAAAAA+P9uj/QTx8J7HR/9xL7sp44l99k3vOC83GBu+8Laoac3veust1y6aG6/YG45bzZW/88zDxTJIwrSo/Jk4TnSreSROd8+SiuPJqk+XxZdmE5H7IfH6kmYL1bG5knD86TbSjMlxRmi5QnZggbcCAR7AAAAAAAA+P/u6a0nBxbe1b7yMfvCrw8t/Hr3gnusV5qsBr39Up3VWGO7XG8lLtWZ2/TvzXyhv1sfvfb13z35A1XiFk3KNhLpc9LooH2BIlorj9TKIuhh+UlhJNgXKGJL1HF0oD5DXKKUlKrjS1Qi8vhE6OeCBtwIBHsAAAAAAACASlnA4qH5d5rfu+Pq3K9ZNKGDVxqtxlp7Z4ONPLnSYLl00WqsMzWf/tPTP37o3rtn/OeP3/qfnyv3BysTgzUpmxX71qduD9TKo3OlEVppVGF6LIn6JPDnSiNJtj+Ytb1IISLZvihDRJ5v2JsjWPQNQrAHAAAAAAAAqPzluiOX/L/lXHCXY/40W3mGpbNmsLNusPOiuaN24FKtpUNvv1S9+C8PRq+bu23FK1uWvDz/9V+rEzfuCp+vPrA5M2lLTto2Euz3RC/NT486cbSwj6m3Z7+Z+OKsd2fPJk/ixKJilSQrPeGhkBOCRd8gBHsAAAAAAAAAKmhVhHPR3Xb/2+1XW8ydDZb2uoF2van5zJW6Ex3n/v7tabenJXz4sx99e928pwPf+9WCN57MTQ1NjV+tStyk2LdRk7w5TxaVnRZGEv7xfxSQVN/Q0EDy/PvvvUseP/5oHQn2hQrRbFGpYKE3DsEeAAAAAAAAgCMPeM/xll/vpfqrTRXt545m71//3MPfm/vSg8vf/PlLv/nePXdN2/jB8//1E7/lcx57Zfr303cGyXbSYK85EKZJDs1KCdPKI3PkUcf/UXjJaGRH7FcsW0oe35kzmwT7tbsyBYubEAj2AAAAAAAAACMyF8/N2B0St8H/1f/60aznHnjkvm/MeeGnH856KDbg2fXv/0ay6pWQhS/MnfHQgjd+Jdu1TrE3RL57vXxXUHzovOyULclxK7Kk2z79u9ZkMrHBftPGYPK4eOGCpZEywYImCoI9AAAAAAAAAM+jz7782gsP/f63D/zHD+/+xh13vPvq47ff4ffAvfdErfr92vnPbF7w3MKZjySLA9ISgtJ2BEl3rs3YE5K+N0S2J1iVHKZI3PzPI/n0DHsm2LNe+mCzYBETCMEeAAAAAAAAQOjfn3nn6Ue/++wv7v7Ov0z77t3TchODG07I5/73D4Lf+/Xqtx5/7ekfpm4PTNu5LiUuULZr3a7Ijw7ELt8Vs1S+O1i6J/jTI/lqtWpTcHBPT8++PXv+vC5ZMPOJhWAPAAAAAAAA4MHDc6N/9+SPnn/smz+6565v3Xnbv3/jtsWzHlz25s8D3nwycMHLG5bM2h0VkJKw6oBkJQn50h1BB7avke1YfyAh8Mhfs9QqVV9fn+FS929WKAWznXAk2BsMBgR7AAAAAAAAAKH7A4++umhd+LIZMatf3r7u1S3zp6+Z+9z20EWbls1au/CP65e8lihekSRZkyhZnRS35oBkdUpCEJG2Y510T/AykXTC72znEQn23d3dCPYAAAAAAAAAnj0UdPi1pWHvv/7Mq9N/sidy0fYt87aHfhCz7p0Ni1956+XHDsSt2RUTsEcUsE+yYmf0ksjwwJeWRj649hPBTCYPgj0AAAAAAADAuPxiZc4flsT6Lw9cMH/2mkUzV7z7uw9enx4dviJww+p5a8NfWXvg1+t1gn9yEyDYAwAAAAAAAExhCPYAAAAAAAAAUxiCPQAAAAAAAMAUhmAPAAAAAAAAMIUh2AMAAAAAAABMYQj2AAAAAAAAAFMYgj0AAAAAAADAFIZgDwAAAAAAADCFIdgDAAAAAAAATGEI9gAAAAAAAABTGII9AAAAAAAAwBSGYA8AAAAAAAAwhSHYAwAAAAAAAExhJNgbDAYEewAAAAAAAIApiQR7p9OJYA8AAAAAAAAwJXHBXq/Xnz59+tixY5988snHH3986NChsrKyg25VikKhUCgUCoVCoVAoFOqmFxfLmSJRnQR2EttJeCcRngR5Eue5YN/Q0FBdXf3FF18cP378U6bIFKTKUSgUCoVCoVAoFAqFQt0CxeZ0NrOT8E4iPAnyJM5zwb6tra2xsbGmpoa8W1VVVVlZedZVZ1AoFAqFQqFQKBQKhUJ9pcVF9LNnSWAnsZ2EdxLhSZAncZ4L9p2dne3t7S0tLU1NTSTu19fXX/RUdSgUCoVCoVAoFAqFQqFuSnFRnF8ksJPYTsI7ifAkyJM4zwV7k8nU1dVFXhuZ6ujoIB+jUCgUCoVCoVAoFAqFuqWKBHY2uZMIT4I8ifNcsDebzVevXu3r6yNv9fT0dLsVmQ6FQqFQKBQKhUKhUCjUV1hcRGeKxHYS3kmEJ0GexHku2A8ODloslgFX9aNQKBQKhUKhUCgUCoW6JYuL7gMDJMiTOM8Fe5uryFukrCgUCoVCoVAoFAqFQqFuyWKTOxfjbTYa7J3O/wVxan8tFyTgNwAAAABJRU5ErkJggg==;" vertex="1" parent="1">
          <mxGeometry x="-630" y="100" width="1352" height="78" as="geometry" />
        </mxCell>
        <mxCell id="KdTVUO_jPhQBWrvJSr6B-22" value="" style="group" vertex="1" connectable="0" parent="1">
          <mxGeometry x="-590" y="320" width="290" height="130" as="geometry" />
        </mxCell>
        <mxCell id="KdTVUO_jPhQBWrvJSr6B-12" value="" style="rounded=1;whiteSpace=wrap;html=1;shadow=1;arcSize=4;" vertex="1" parent="KdTVUO_jPhQBWrvJSr6B-22">
          <mxGeometry width="290" height="130" as="geometry" />
        </mxCell>
        <mxCell id="KdTVUO_jPhQBWrvJSr6B-13" value="" style="shape=image;verticalLabelPosition=bottom;labelBackgroundColor=default;verticalAlign=top;aspect=fixed;imageAspect=0;image=data:image/png,iVBORw0KGgoAAAANSUhEUgAAALoAAAC8CAIAAABANSO7AAAAAXNSR0IArs4c6QAAAARnQU1BAACxjwv8YQUAAAAJcEhZcwAADsMAAA7DAcdvqGQAAAASdEVYdFNvZnR3YXJlAEdyZWVuc2hvdF5VCAUAAAQZSURBVHhe7dztUSM5FIbRDWXjcB7k4TjIgzjIw3nwf29tqyh2FihebIGle86PKabAX/Qzklptz18v8GVyISAXAnIhIBcCciEgFwJyISAXAnIhIBcCciEgFwJyISAXAnIhIBcCciEgFwJyISAXAnIhIBcCciEgFwJyISAXAnIhIBcCciEgFwJyISAXAnIhIBcCciEgFwJyISAXAnIhIBcCciEgFwJyISAXAnIhIBcCciEgFwJyISAXAnIhIBcCcnm5XC7Pz89PT0+Pj4/1Z31dxvf4r6a5VCIVx/l8/vsDp9Opvlv1jBvwr465VCgjii+oburnxy3b65VLzTKjgpBoDo1yiQaVdymmSy4PDw/jmF+nFjTjHltqkcutWjl0Lmb/XOrsZhzn22k7K22ey7fXtp+rlW/PvZnNc7ntNPRW3fN4jE52zmXS0PKq4QCzcy7zhpZDwwFm51zGUZ2mVjDjkdrYNpcZJ0T/120+2jaXTy4f3lC3+WjbXGYvXA5y2UQtLMYhnanb8mXbXMbxnEwumxjHc77xeD2YjK5idNmEpe4M2+byMyfS3d7MsG0usy8YHbq993vbXC6XyzikM40Ha2PbXMrs5UvDt9XtnIs3MNzczrmUeQNMt3Oiw+a5zFvBNBxayua5lBnvZGj7Ydj9cynXfyDtrZ7T0KFFLscH6MfRvk7nVkqLXA4+9Hq9RrmUWnN879Jj3arn2vYPvXIp6cRUoRhUXrXL5VDR1Ejz+WXIWqYI5Q9Nc3lV3ZSaaKqeiqPU1+adj3TPhYhcCMiFgFwIyIWAXAjIhYBcCHTM5diae92XO5/PD2/UXw/1A8WW3Vstcjn2bauMqmHs8IdOp9NRUgU07rSlbXN5HT++dwn6c3WfPdPZLZeq5JpRJHWMOn262SeXCqX+xY/D+OOajDc75DJpxvmeeib1fMYz287audSBGUfpzuwazaq51JnO/YwoH6lnuNl5+JK53O2g8q6dhpnFcqn17I+d9dxQDTP1zMdrWNlKudRvfPz6F7RHMcvksui48tYGxSyTy+qtHOpVjNezpjVyefqR/+D/Zyy9lbdGLnsMLYeaksarWtACuSy9wn3XupsxC+Sy00x0kMtEa23KfcW6G3dy+QVymUgu90Muv0AuE8nlfsjlF8hlIrncD7n8ArlMJJf7sUAuxyfKdmJXlxbkQkAuBORCQC4E5EJALgTkQkAuBORCQC4E5EJALgTkQkAuBORCQC4E5EJALgTkQkAuBORCQC4E5EJALgTkQkAuBORCQC4E5EJALgTkQkAuBORCQC4E5EJALgTkQkAuBORCQC4E5EJALgTkQkAuBORCQC4E5EJALgTkQkAuBORCQC4E5EJALgTkQkAuBORCQC4E5EJALgTkQkAuBOTCl728/AMx+NAsw2WkOwAAAABJRU5ErkJggg==;" vertex="1" parent="KdTVUO_jPhQBWrvJSr6B-22">
          <mxGeometry x="10" y="20" width="89.04" height="90" as="geometry" />
        </mxCell>
        <mxCell id="KdTVUO_jPhQBWrvJSr6B-14" value="&lt;font style=&quot;font-size: 25px;&quot;&gt;&lt;b&gt;1 586 486&lt;/b&gt; Contacts&lt;/font&gt;" style="text;html=1;strokeColor=none;fillColor=none;align=center;verticalAlign=middle;whiteSpace=wrap;rounded=0;" vertex="1" parent="KdTVUO_jPhQBWrvJSr6B-22">
          <mxGeometry x="80" y="32.5" width="200" height="65" as="geometry" />
        </mxCell>
        <mxCell id="KdTVUO_jPhQBWrvJSr6B-25" value="" style="group" vertex="1" connectable="0" parent="1">
          <mxGeometry x="340" y="320" width="290" height="130" as="geometry" />
        </mxCell>
        <mxCell id="KdTVUO_jPhQBWrvJSr6B-26" value="" style="rounded=1;whiteSpace=wrap;html=1;shadow=1;arcSize=4;" vertex="1" parent="KdTVUO_jPhQBWrvJSr6B-25">
          <mxGeometry width="290" height="130" as="geometry" />
        </mxCell>
        <mxCell id="KdTVUO_jPhQBWrvJSr6B-28" value="&lt;font style=&quot;font-size: 25px;&quot;&gt;&lt;b&gt;486&lt;/b&gt;&amp;nbsp;&lt;br&gt;Enquêtes&lt;/font&gt;" style="text;html=1;strokeColor=none;fillColor=none;align=center;verticalAlign=middle;whiteSpace=wrap;rounded=0;" vertex="1" parent="KdTVUO_jPhQBWrvJSr6B-25">
          <mxGeometry x="80" y="32.5" width="200" height="65" as="geometry" />
        </mxCell>
        <mxCell id="KdTVUO_jPhQBWrvJSr6B-24" value="" style="shape=image;verticalLabelPosition=bottom;labelBackgroundColor=default;verticalAlign=top;aspect=fixed;imageAspect=0;image=data:image/png,iVBORw0KGgoAAAANSUhEUgAAAKkAAACaCAIAAABdWf97AAAAAXNSR0IArs4c6QAAAARnQU1BAACxjwv8YQUAAAAJcEhZcwAADsMAAA7DAcdvqGQAAAASdEVYdFNvZnR3YXJlAEdyZWVuc2hvdF5VCAUAAALiSURBVHhe7dzRbdtAEEXRlJI60gf7UB3sg3WwD/ah/wyQ+QlpCktihH3Ld8+ndwF65kIGLMP69YYr2vuivS/a+6K9L9r7or0v2vuivS/a+6K9L9r7or0v2vuivS/a+6K9L9r7or0v2vuivS/a+6K9L9r7or0v2vuivS/a+6K9r57t53mepunPE8VcMV3Oqapb+9jO76eLGXNaSX3ax2si1/N0y7LkzHr6tI+firmbp1N+6dP+u2LSnFkP7b+L9nu0V0D776L93of2cTSi/O4P4ihn1qPVXnlTn404Ee1r0L4V7RXQvgbtW9FeAe1r0L4V7RXQvgbtW93Y1LZty4k4yksHeaPIhwfRvtWNTcXq89JBHOWlg7MH3XPjQbTfo70C2l9A+wK0V0D7C2hfgPYKaH8B7QvQXsEw7Xlvp9ww7cXRvhXtFdC+Bu1b0V4B7WvQvhXtFdC+Bu1b0V7BMO3XdY3THy3nb7fVfqbLhwfFac7wv/h63tAzTPvYe146uJHkHtoXoL0C2l9A+wK0V0D7C2hfgPYKaH8B7Qvc2BS/35cbpr042reivQLa16B9K9oroH0N2reivQLa16B9K9orGKY9/5dTbpj2sfq8dBBHeeng7EH33HgQ7fdor4D2F9C+AO0V0P4C2hegvQLaX0D7ArRXMEx73tspN0x7cbRvRXsFtK9B+1a0V0D7GrRvRXsFtK9B+1a0VyDXflA5wEEc5cx6tNo/D+33aK+A9t9F+z3aK+jTfpqm3M3TvV6vnFlPn/bL+R/jH2Zd15xZT5/2YZ7nXM9zxYw5raRu7bdti9XUfiaKjphL+RX/T7f26I72vmjvi/a+aO+L9r5o74v2vmjvi/a+aO+L9r5o74v2vmjvi/a+aO+L9r5o74v2vmjvi/a+aO+L9r5o74v2vmjvi/a+aO+L9r5o74v2vmjvi/a+aO+L9r5o74v2vmjvi/a+aO+L9r5o74v2vmjvi/au3u+/LEg9HV9zCZEAAAAASUVORK5CYII=;" vertex="1" parent="KdTVUO_jPhQBWrvJSr6B-25">
          <mxGeometry x="10" y="17.5" width="87.79" height="80" as="geometry" />
        </mxCell>
        <mxCell id="KdTVUO_jPhQBWrvJSr6B-30" value="" style="group" vertex="1" connectable="0" parent="1">
          <mxGeometry x="-280" y="320" width="290" height="130" as="geometry" />
        </mxCell>
        <mxCell id="KdTVUO_jPhQBWrvJSr6B-31" value="" style="rounded=1;whiteSpace=wrap;html=1;shadow=1;arcSize=4;" vertex="1" parent="KdTVUO_jPhQBWrvJSr6B-30">
          <mxGeometry width="290" height="130" as="geometry" />
        </mxCell>
        <mxCell id="KdTVUO_jPhQBWrvJSr6B-33" value="&lt;font style=&quot;&quot;&gt;&lt;b style=&quot;&quot;&gt;&lt;font style=&quot;font-size: 25px;&quot;&gt;65 % actifs&lt;/font&gt;&lt;/b&gt;&lt;br&gt;&lt;font style=&quot;font-size: 14px;&quot;&gt;&lt;br&gt;Répond à au moins une enquête en cours&lt;/font&gt;&lt;br&gt;&lt;/font&gt;" style="text;html=1;strokeColor=none;fillColor=none;align=center;verticalAlign=middle;whiteSpace=wrap;rounded=0;" vertex="1" parent="KdTVUO_jPhQBWrvJSr6B-30">
          <mxGeometry x="130" y="32.5" width="150" height="65" as="geometry" />
        </mxCell>
        <mxCell id="KdTVUO_jPhQBWrvJSr6B-29" value="" style="verticalLabelPosition=bottom;verticalAlign=top;html=1;shape=mxgraph.basic.pie;fillColor=#10739E;strokeColor=none;startAngle=0.20654931539664242;endAngle=0.8767881825393761;shadow=1;fontSize=25;rotation=45;" vertex="1" parent="KdTVUO_jPhQBWrvJSr6B-30">
          <mxGeometry x="29.999999999999943" y="20" width="90" height="90" as="geometry" />
        </mxCell>
        <mxCell id="KdTVUO_jPhQBWrvJSr6B-34" value="" style="group" vertex="1" connectable="0" parent="1">
          <mxGeometry x="30" y="320" width="290" height="130" as="geometry" />
        </mxCell>
        <mxCell id="KdTVUO_jPhQBWrvJSr6B-35" value="" style="rounded=1;whiteSpace=wrap;html=1;shadow=1;arcSize=4;" vertex="1" parent="KdTVUO_jPhQBWrvJSr6B-34">
          <mxGeometry width="290" height="130" as="geometry" />
        </mxCell>
        <mxCell id="KdTVUO_jPhQBWrvJSr6B-36" value="&lt;font style=&quot;font-size: 25px;&quot;&gt;&lt;b&gt;985 123&lt;/b&gt;&amp;nbsp;&lt;br&gt;Unités enquêtées&lt;/font&gt;" style="text;html=1;strokeColor=none;fillColor=none;align=center;verticalAlign=middle;whiteSpace=wrap;rounded=0;" vertex="1" parent="KdTVUO_jPhQBWrvJSr6B-34">
          <mxGeometry x="90" y="32.5" width="200" height="65" as="geometry" />
        </mxCell>
        <mxCell id="KdTVUO_jPhQBWrvJSr6B-37" value="" style="shape=image;verticalLabelPosition=bottom;labelBackgroundColor=default;verticalAlign=top;aspect=fixed;imageAspect=0;image=data:image/png,iVBORw0KGgoAAAANSUhEUgAAAKkAAACaCAIAAABdWf97AAAAAXNSR0IArs4c6QAAAARnQU1BAACxjwv8YQUAAAAJcEhZcwAADsMAAA7DAcdvqGQAAAASdEVYdFNvZnR3YXJlAEdyZWVuc2hvdF5VCAUAAALiSURBVHhe7dzRbdtAEEXRlJI60gf7UB3sg3WwD/ah/wyQ+QlpCktihH3Ld8+ndwF65kIGLMP69YYr2vuivS/a+6K9L9r7or0v2vuivS/a+6K9L9r7or0v2vuivS/a+6K9L9r7or0v2vuivS/a+6K9L9r7or0v2vuivS/a+6K9r57t53mepunPE8VcMV3Oqapb+9jO76eLGXNaSX3ax2si1/N0y7LkzHr6tI+firmbp1N+6dP+u2LSnFkP7b+L9nu0V0D776L93of2cTSi/O4P4ihn1qPVXnlTn404Ee1r0L4V7RXQvgbtW9FeAe1r0L4V7RXQvgbtW93Y1LZty4k4yksHeaPIhwfRvtWNTcXq89JBHOWlg7MH3XPjQbTfo70C2l9A+wK0V0D7C2hfgPYKaH8B7QvQXsEw7Xlvp9ww7cXRvhXtFdC+Bu1b0V4B7WvQvhXtFdC+Bu1b0V7BMO3XdY3THy3nb7fVfqbLhwfFac7wv/h63tAzTPvYe146uJHkHtoXoL0C2l9A+wK0V0D7C2hfgPYKaH8B7Qvc2BS/35cbpr042reivQLa16B9K9oroH0N2reivQLa16B9K9orGKY9/5dTbpj2sfq8dBBHeeng7EH33HgQ7fdor4D2F9C+AO0V0P4C2hegvQLaX0D7ArRXMEx73tspN0x7cbRvRXsFtK9B+1a0V0D7GrRvRXsFtK9B+1a0VyDXflA5wEEc5cx6tNo/D+33aK+A9t9F+z3aK+jTfpqm3M3TvV6vnFlPn/bL+R/jH2Zd15xZT5/2YZ7nXM9zxYw5raRu7bdti9XUfiaKjphL+RX/T7f26I72vmjvi/a+aO+L9r5o74v2vmjvi/a+aO+L9r5o74v2vmjvi/a+aO+L9r5o74v2vmjvi/a+aO+L9r5o74v2vmjvi/a+aO+L9r5o74v2vmjvi/a+aO+L9r5o74v2vmjvi/a+aO+L9r5o74v2vmjvi/au3u+/LEg9HV9zCZEAAAAASUVORK5CYII=;" vertex="1" parent="KdTVUO_jPhQBWrvJSr6B-34">
          <mxGeometry x="10" y="17.5" width="80" height="72.9" as="geometry" />
        </mxCell>
        <mxCell id="KdTVUO_jPhQBWrvJSr6B-39" value="" style="rounded=0;whiteSpace=wrap;html=1;fillColor=#EFEFEF;fontColor=#333333;strokeColor=#666666;" vertex="1" parent="1">
          <mxGeometry x="-632" y="589" width="1350" height="580" as="geometry" />
        </mxCell>
        <mxCell id="KdTVUO_jPhQBWrvJSr6B-40" value="" style="shape=image;verticalLabelPosition=bottom;labelBackgroundColor=default;verticalAlign=top;aspect=fixed;imageAspect=0;image=data:image/png,iVBORw0KGgoAAAANSUhEUgAABUgAAABOCAIAAAB9gWtPAAAAAXNSR0IArs4c6QAAAARnQU1BAACxjwv8YQUAAAAJcEhZcwAADsMAAA7DAcdvqGQAAAASdEVYdFNvZnR3YXJlAEdyZWVuc2hvdF5VCAUAAB4sSURBVHhe7d0LWFP33Qdw2rq2e7e9e9bt3dZ1e7s9fdu1XbtufffO3rvtrX3XWrd21d6k1kutilfwgqig3JMA3hW5JSEkIdzCNYir65y4tipahYoRkHuAKAIBCQkJyfv/n3MCOYckoIKV9/3+ns+TJ5fjOf/zP0eefPM/F7+/o1AoFAqFQqFQKBQKhZqy5XfvhkoAAAAAAAAAmHJOnDo7MDCAYA8AAAAAAAAwJSHYAwAAAAAAAExhCPYAAAAAAAAAUxiCPQAAAAAAAMAUhmAPAAAAAAAAMIUh2AMAAAAAAABMYQj2AAAAAAAAAFMYgj0AAAAAAADAFIZgDwAAAAAAADCFIdgDAAAAAAAATGEI9gAAAAAAAABTGII9AAAAAAAAwBSGYA8AAAAAAAAwhSHYAwAAAAAAAIzLs2F/mxerCd15YM8+iTI1OlcWoU2PVaSJ9ibt3CDeu0CS+/y2I4J/chMg2AMAAAAAAAD48timfy6Mku3dsS1z/6bMA5uzkjdnp2zOTduqlW3TyiLyZFEFiljyyD5JToxdlpD9yy2fCWYyeRDsAQAAAAAAADx7cOPxZVFJ8h1rNYmbM3Zv0CRtyUreqkkKzU4Jy5VGEFpZVI4sMos+idbKo/PTYwitPCo3NTxwh+rnm04KZjgZEOwBAAAAAAAAPHgtLGdXTCBJ9co9wep9IZmJm0meVyduykzakp26VbpzLT0UXx7plue5J0SBnD5qMrbPFpUKZjvhEOwBAAAAAAAAhBZt3ZcsXpkWt0a2Y212Uqhi13rlno1ZyWE5qaEk1edKw5kR+0iigIn0NNXL6ZMCRSxRnCEuUorzlaKDWdtXxisEM59YCPYAAAAAAAAAPHuV+XsiPkyWrJQlrFHsWpexe51y74aspM2aJDponycLz0ndls+MzzORPjJPTl6SkB+eJ48kqd7w1FPuAhf/STVzqWAREwjBHgAAAAAAAGBEZtnnl2tO1J8uTYtfkSxenhizRL0vmAT7nJTQ3LQw5b4NWcmbtbIIojCDBPvIgvRorSy8UB6TL4/JSxflp0ezeb7VFez9/PzI4+RlewR7AAAAAAAAAM6B4i+6L568dOFzU9NZY93J1LiV6TuCNPuCk0QBWXS4fkueNDRPGpaXtrUoI6ZIISJ5vjA9liAv82QR5FGnjmPz/JGIVe7Bnli2QiJY3IRAsAcAAAAAAACgVsrOdtZ+RvQ2nemqP93XVt3TcOJA7FLV/uDM5E1ZqZvVicE5qfQud9nJm/OkWwvSSZKPypeHFyoiCxXRNOpnxBRmiNgYP2w42Nc9/+zSefsFC71xCPYAAAAAAAAAlY9vq+yoO93ffHagtcrUdMbUdLa74UxnXUV3/Yn0HYHqxI05qfRQfII80Uq3FWfElGTEEjq1mOR5erU8hYgO3SvFbIz/5O1Z4fff/+73v787OoB958Lzz1547vePrTkmWPQNQrAHAAAAAAAAqNxfcqan7jNTU1V/S21fe1Vf83lTw5m+1sre5rNHCxNV+4OzU0I19Oz6bXnS8EJFdLGSHn6vU8cWqyQl6riijCiS6ouVMUVKbsQ+P52O3rOfsu9Eb1pMHnf9ZaNg0TcIwR5uFf5H+k1DTkunKUQs/AgAAAAAAGBSPRVTZddr2nJ/MPC32/qP3Wuu3T/QUdnTeKa3uYroqT+tSdqSnRySnRqaJ92aTy+YF8Uee88ch09DPgn8JNjny8ILM2LYGF+kpHe8K0iPINh3YrYsKc2g4/m/XXlY0IAbgWAPt4Zck9FmK9c1q40OU53xNcGnAAAAAAAAkylelmjU+DmP+A3q/RxN37O1fLu36i1r+8W+lqr+li9NrV9eufi5ev/6POm23LTwfHkESfLFGeISVUxppkSniilWRJVqEoqUEjo+r4z3Y6owQ5SfHlMgC8+Xhs97ewZ5J3XHxlJ1wn8+8fA3py8QNOBGTHywVxudvBpymIx96sJawWTDhNO7quakcEpWeJ2dfmzuCx/1kRf6gKO9NVcdzFydTpu9Rn85wPOYcFcNN5GnMnaNmp4z/aSFm4Y2Wy/4dJTakFP9TcPtof3TK8323D9eOseiHjUlAAAAAAAAXLcvVT+0HvIbOnf3d+68a/X8N9cu+dBpnGltLbd01PaRYN9wpq+t+tynBTmpoZqkTUUKUW7a1hIVPbu+RCUqy0woVUkOaXYcVMeTjwpUsUXqOJLqS1QSJuqLdJnxuswE8lisFBElKrEyfY+gATdi8oM9V/aqo/WCKVmTHOz13PSC6u0L95DtrzPYJxqYCYaYR8Nlwac84rbyXmYyQXlZna8m2Lv9TsEV1zzaP5b2rjluE9MWjvSMPuBoX5OZ+SdDDlN7d8hu3pSmurbhl/duaCs3u97xskSfqz96Y9nLi9k5NyTWWU3s5hiyGxs6vfyOMyayiOF5Mor7TOw79ImHYleH7nLDG5SumoftxZtmgz7klMVkY2ZBf+gxidz6jdFRYaX9PJ17SbvOQ7ltJn6xa+F9dchz/iawXLUcPtLgmnLM5l2D6erL5V2u/5Jma/nIUgjegowt3W4nZfja98bx30TQgS67Ddp2u4XdVWz2mlMGdgKfM5zI3hjF26475rZj29ZymPx5MXTyVjOlu4msehXpZ7f/cQAAAADA9+ddVV1ZfoP/8BMv/Jfl789YNPM3rzz3cOC8l+w1/gMd58xt1b2NlT0tlV31FQXp4erEjYq96+nV8pTRJMaXKKOTJEtU+4Iy9gUmxy8ldkUsSI1fnpkUrJWFFWWElyijDmVLDmbHlWri/pqzU6eS6NQSrTz6xYijgmZct0kL9lzGqA061mdkvwRb+0X8KflcWcV7fmZdU7CfftTM5hVTU2cQ+f4trt/pyvnG6hbBxO5cPwfwv0x7ZqSZgUxZxyzK2r9TOMGwenU7N1BvbOkKT6Jj+9OTGkXH+2qMvR5Xh9+ZN4uXLOpKjI6a4yO/0QyHK8L/pMXidDRVdQRomgMOdlWRjHF15AcUMqXPYO9xiRx+DGbRxnj89Se8xu60WXUHG+eIa/0LOyuuCgPhuPlMUxwPzbjWYD/nOOk3e8Uxg/9u/Rxlh67TQfvNffrD/Uz4tGpT3N5kuPe/i7ee8bk6bu2cITNIm8j+bzucTV+O3bzxS+mqsdHLKIiU9TPInl9lJXMu13EHuQRVk78UJF2z+093DfmD0Nntz/1bulI+9j2Wp/2E4bkD28qvkl20X1rYMGN3Q8ixfhOZ/0n3Hxo8zHAie2MU77vueLfdnLPkj5FF7fZL1pwvyDvsiiPYAwAAAHgVnXems/jHQx/fmbX+u6ve+eNf/vuxl39936zf/sTWOMvcUmkx1JJs39N4pvPiidZzR9gT7EtUoiJFeFbSxlJ1VLEisixLrFPHFiqiyjQSkuTpFfXogfoinSquWCUp1SSUZIjLNAllmu3FKvK+pDRz+0c7CgXNuG6THeypID2b7O3lhSOTjTIZwb5e28nMk/ebAjOoRcrnHLilCL5Me0QyA5mQ5HlNL7PqjopDo6ZhHWKmJN+7m4zCkUMvRnfmzeAz2FusDqfNnOgW112bjA6K8mIDSXFDzqYvuCRGprwpwd5A0pr7gqYfIzuWVesWdcbNZ5rieGgGr7XjCPbqdppgR3aJbLIjkbjrerlBLzU4LQ1dZL81Vje73uSMDrfee8bn6gjbebmKbLuzdNuN1bxrIGpw0P8pI9uiXtdF209nLu5kluiWq+mCnFVH2Zd0pbzvexxP+wnhuQPZxKuTDU9WubPJIfjno2c4gb0xio9dd9zbjhmfdzshiPkbyB2qgGAPAAAA4FVBxQVHvaKvxM95/I57br/9zRefmvHME/Yrbzkurh5oqTK36PuaK82Gqsu1n125WFGoiMxJ3VqWFV+qluiUkrLM+Io1C06vmn9QE6tTR59aNa8sfRuZ5uiHb5I3K1Z+cGrVghJ1nC5TcmrVfJ1STA/IV4lI1I9KVAiacd1uRrBnvneSEiQigckI9jSc0OIfHs/NwWfYc03ju80UNyVdBLcK3r46h9Sw8+QGQsfDQ2feBF5jNpMYT9EjFCyGy2y2GQlXhUzS4CUcPQ0V7dwGJVPye2aSgj1NcU6zOVE95sUOxuQzTXE8NIPXWi+r5j4N/eVryKrzdh0KMdcMGkR7e4P4n44Ot957xufqCNtJtzIbg8do3jVoJtHa0mR0f3OOrlP7WRsdlD5KQ6yON6JOp3ftM8xKedv3XDztJ147kJ5B02XiHcqRbdSeMrr38OgZTlxvjOZj1x3/ttOz3cL99JBiIjm/6hg7QwR7AAAAAK/O+T/oaP6s/+QiR+nt9uO3DV389lD9N4fqX3Q2FNmMNZaOWku7fqD9vKnxTHf96c/K5Ok7g0oyoun18NMjizKi2Cveb1rz3kE5vfq9+pFHmn73AvvmsFIpvVT+kSeeKFHGlSglJer45LT9gmZct5sR7OmXY1qCb+0CkxDsmS+1pATfZZmjVUnxvyjzudrsaxoGzR6kmk7Rr87cyfa9vQHCySiuZ1zH6nMv2fKyOrxphms8634jaE7glSslcolxOj1IwVFxmK4ymyLop8c9JFg6BOraoGRKn8GeV76iMoc2hlfDe47scnkXPeXB0mOpqDLSUzBG/tU18ZmmOFyfuL3Db+04gv29YnqmN12Fq9aqOu4cjWEjcZSOaQuPBxnp/xHeesbn6ri3U9yc6HYovu/mXQufwdJTR7mtHdfPnvc9F0/7idcO9NR1Qh5mOGG94YnXXXfc2254nJ/5Y0v/1g2ZE7mPEOwBAAAAvDL5f8sy+07nlSqbocJxbqu90n9Av8XZdtLeecp2uc52qXagXW9uq7Z2XOhtOnvun7klKlG+PKI0U3woK64gPZKN7pvW+B9SRJMnJNg3v/g8eZL36KOxP/sZ+2n82tnkkQR75d6Nhekx+YqIC8/9XtCM60aCfXd396SeY9/PXWass9vnec6TEOzpd19awu+yXIwUJDQebik+p6G43w5shzX0pevy+J5/wuD3jOslW15WhzfNcI1n3W+Ep4jFGA6x+kQDd0z1SDq60WDvcYkcT4FtuDEe6efoOg83MNchG7JXHeOdOD1uPtMUx0MzeK31smqj12hGtlFbZzHSH50cTdVtroO96S9HrtMZmEPK+SPeI/0/wlvP+Fwdbtd1lc3Gv6ydt+ZdkwkI9p73PRdP+4nXDvTUdUKeZkhNRG9443HXHXPbuXcdcxoFXWXmEImGDtf7CPYAAAAAXtnmTXP6T3Msvb23rbav5vPBps8dhrOWdr3tUv3QlXpL+3mrsabfcK63uXLAcL7muLZYEVOqEuvU4rKseIKN7iTYl6Vzwb6JCfZ+fn46lYT99JCCPiHBvkyToFNLDmbtaH3qaUEzrtukjdgLymZRu53L6skkBHvupHfhd9kJHLHnZjXcGNcxAsMnlrvjeobfct+r4/GfTDqvMdstMYovV9lox2qH09Gtcii+QK2owe42aHlNfKYpjodm8FrrZdU8rRFLH3CK7FTcT0Xseea8GjJL3U4h8ZROvfWMz9Vxaye9iJ3bqex8/OZdGyZn8n+YmJ7UGKCsp8F4PIfie9v3XDz0qvcO9HAo/u6GAE3DDLd3vG8m1o30xpjcd93xbjsW/UGts3sO/QPofogHgj0AAACAV/b3p9nn32VbeLdJPLOvpdLW/uVge7X9Up3tUo2l4wJJ9ea2anPb+b7mMwPt57sbTxUrRQczt+vU8QezEsqyd7DRPXjle+XRq8kTfrCPYz8tGz4UXx1XqkkgJjbYDw4OTmawt9npbavGPhx6EoI9EwZoeT7HfqwkSUuQ4gSY01k91ugba7Hftmnx0ovv1bl1g/0G7vLgJrLVuE021sXz2vk5irtYGvPpBAZ73knFDB0TgXxduNEbugiuhQz2IGd++PTQDF5rxw72zNnserd7NIiZ658dp8/p1eZ4+xLtZLdLo11rsPe+Ou7tFNMmuTalr+ZdK/bieW5XsvR58TwZsyndLp7nfd/jjN5PfHQge/E89+vkj+PieRPZG0K+dt1xbzsWvU6ntbzOxr8oA4I9AAAAgFc97/+r44NvDHz0gH3VI47jBZb22oHWL63tF2yXa4eu0EH7wfYakupNjTTY9zZXpe9el52yid7xjt6jnhuT//jxx9knf/zOd0aCfSY3nn9QxgX7g1nbCzPone0n9lD8oaGhSb543rhMRrCnI360PF4VXzBYx8ctZYxg77o43+jyNETMfBen5X6nPd+rcysH+5G797k2Ge92d4Wd5T3MncBcA7/MrQfpp4uS9DNkHfREZZtF7S2Z8I0ObN7jK9Mqs0VL7xmmn5PraoZwsvFgjvoevv0YcwO2UXfO89AMXmvHDvbsTc5s5fQOapX8nqExUnD0B02qbme1XEuw97k6/HbOoS+5K8Z7b961k9Hb3Znau0WyWnqjxzFvdzeSS8fY91ij9hOfHSimt7uz9PRJc+unj/t2dxPZG0I+dt1r2HYM7s8p7zcIBHsAAAAA7y4sftT5wb/aVz7sWHyfJeaNgZYT1tYvza1n7FcabVcaB4x1lo4LA+36q63nyGNfW7X+RGGhIro4gx6QTyj3BbPpnbU24G022Lsrk8e6vyxVSY794Q1BM64bCfYOh+P/arBnB+Voue5jz14VjBTvhtijcUvxHezZG93xh3Bdp9k7Kg6PvOniWkcmvZBgQL6v06NtSXlZna8u2AuKjQ2jEiOT09w2mT7gaF8Tt46kHPyT23mfmnr6pcNX//a6RM7ofMU2RlBc28hW1ltM7D0Whxymrr7EMU4D8Y7Mqo4525nOym5s6AwQHqA+nmDPL6a7+GtUG3LKbHT1jOWqRaulPeN+FbQRdK8bubGCt2AvqJGe8bY6wnDI/P5lZKOj5+Zdn+nqzooe9j8XndVh3pn8+pBTIxuOHukz0ttj7nuUYD8ZuwN3d+iMduYW9+R/ma3qlEFwoI2nHW8ie0PIx657DduOYm4yKji6BMEeAAAAwKuDK962Lfo3x+qnnYFP2pc9aNJILB16q6HSYjjvNLWSbG+7TLO9ue18v6GaBPuKv6nyZJFaeUSeLEIrpxfGPzN7JpvY/fz8slLCKhe8NZzhWQfldMR+WLEqTjVzqaAZ140Ee/I98asM9tz0o0oQlobRr9qeysv0DWojewA8r0yGTn/hlDyupfgK9nToj5TgGviu0+zdrlk1Yrqu18h+axeUl+7y0jnCL/G3pFqR3kaH6Ks7XhN+BAAAAAAAcAsRB8cNfnS/dcUvnNFzHR/d74x5x9J63tp61n65zt7VNNjZQCL9QLu+t7mKBHuz8cKXn+blpm3LSQkrIPFeGl6sjClWRn3ta9NIqi9UxBYrY/Pl0W++9iJ5yVbwKv8SdRz3gqlSlfhbz68QNOO6/Z8P9vxBMJKJmXE59+tjeTSOYM8NvwsuBjYyLO+tB3YbtC224fbQcbkeS/lnwqFC1lQO9pT/ka7rHy0HAAAAAAC4KV7f+okj4JfOpT8divF3Ln/CtvpX5k/U9la9va3W1lVPh+vb9Nb2C1dbvzQ1nulrqz6mS81NC9Mkb1LtD86TbtXKIwszYooyYjIPhBQqRAWKWKIwQ1SkFGvl0ewTVrFKQtCL56njX4z4h6AZ123igz0AAAAAAADA1FK/dcnQR/c71j/nDPytY9F9dlmQraPOzuR5q7Fm8HLdoLF2wHC+v/Vcf4detX9TVnJYVuoWTfJmrWxbniwiPz0qVxaevmddbgp5HkPSO8nzJao4NsznyiLVB0LJE11mPBvslYq9ggbcCAR7AAAAAAAA+P9uj/QTx8J7HR/9xL7sp44l99k3vOC83GBu+8Laoac3veust1y6aG6/YG45bzZW/88zDxTJIwrSo/Jk4TnSreSROd8+SiuPJqk+XxZdmE5H7IfH6kmYL1bG5knD86TbSjMlxRmi5QnZggbcCAR7AAAAAAAA+P/u6a0nBxbe1b7yMfvCrw8t/Hr3gnusV5qsBr39Up3VWGO7XG8lLtWZ2/TvzXyhv1sfvfb13z35A1XiFk3KNhLpc9LooH2BIlorj9TKIuhh+UlhJNgXKGJL1HF0oD5DXKKUlKrjS1Qi8vhE6OeCBtwIBHsAAAAAAACASlnA4qH5d5rfu+Pq3K9ZNKGDVxqtxlp7Z4ONPLnSYLl00WqsMzWf/tPTP37o3rtn/OeP3/qfnyv3BysTgzUpmxX71qduD9TKo3OlEVppVGF6LIn6JPDnSiNJtj+Ytb1IISLZvihDRJ5v2JsjWPQNQrAHAAAAAAAAqPzluiOX/L/lXHCXY/40W3mGpbNmsLNusPOiuaN24FKtpUNvv1S9+C8PRq+bu23FK1uWvDz/9V+rEzfuCp+vPrA5M2lLTto2Euz3RC/NT486cbSwj6m3Z7+Z+OKsd2fPJk/ixKJilSQrPeGhkBOCRd8gBHsAAAAAAAAAKmhVhHPR3Xb/2+1XW8ydDZb2uoF2van5zJW6Ex3n/v7tabenJXz4sx99e928pwPf+9WCN57MTQ1NjV+tStyk2LdRk7w5TxaVnRZGEv7xfxSQVN/Q0EDy/PvvvUseP/5oHQn2hQrRbFGpYKE3DsEeAAAAAAAAgCMPeM/xll/vpfqrTRXt545m71//3MPfm/vSg8vf/PlLv/nePXdN2/jB8//1E7/lcx57Zfr303cGyXbSYK85EKZJDs1KCdPKI3PkUcf/UXjJaGRH7FcsW0oe35kzmwT7tbsyBYubEAj2AAAAAAAAACMyF8/N2B0St8H/1f/60aznHnjkvm/MeeGnH856KDbg2fXv/0ay6pWQhS/MnfHQgjd+Jdu1TrE3RL57vXxXUHzovOyULclxK7Kk2z79u9ZkMrHBftPGYPK4eOGCpZEywYImCoI9AAAAAAAAAM+jz7782gsP/f63D/zHD+/+xh13vPvq47ff4ffAvfdErfr92vnPbF7w3MKZjySLA9ISgtJ2BEl3rs3YE5K+N0S2J1iVHKZI3PzPI/n0DHsm2LNe+mCzYBETCMEeAAAAAAAAQOjfn3nn6Ue/++wv7v7Ov0z77t3TchODG07I5/73D4Lf+/Xqtx5/7ekfpm4PTNu5LiUuULZr3a7Ijw7ELt8Vs1S+O1i6J/jTI/lqtWpTcHBPT8++PXv+vC5ZMPOJhWAPAAAAAAAA4MHDc6N/9+SPnn/smz+6565v3Xnbv3/jtsWzHlz25s8D3nwycMHLG5bM2h0VkJKw6oBkJQn50h1BB7avke1YfyAh8Mhfs9QqVV9fn+FS929WKAWznXAk2BsMBgR7AAAAAAAAAKH7A4++umhd+LIZMatf3r7u1S3zp6+Z+9z20EWbls1au/CP65e8lihekSRZkyhZnRS35oBkdUpCEJG2Y510T/AykXTC72znEQn23d3dCPYAAAAAAAAAnj0UdPi1pWHvv/7Mq9N/sidy0fYt87aHfhCz7p0Ni1956+XHDsSt2RUTsEcUsE+yYmf0ksjwwJeWRj649hPBTCYPgj0AAAAAAADAuPxiZc4flsT6Lw9cMH/2mkUzV7z7uw9enx4dviJww+p5a8NfWXvg1+t1gn9yEyDYAwAAAAAAAExhCPYAAAAAAAAAUxiCPQAAAAAAAMAUhmAPAAAAAAAAMIUh2AMAAAAAAABMYQj2AAAAAAAAAFMYgj0AAAAAAADAFIZgDwAAAAAAADCFIdgDAAAAAAAATGEI9gAAAAAAAABTGII9AAAAAAAAwBSGYA8AAAAAAAAwhSHYAwAAAAAAAExhJNgbDAYEewAAAAAAAIApiQR7p9OJYA8AAAAAAAAwJXHBXq/Xnz59+tixY5988snHH3986NChsrKyg25VikKhUCgUCoVCoVAoFOqmFxfLmSJRnQR2EttJeCcRngR5Eue5YN/Q0FBdXf3FF18cP378U6bIFKTKUSgUCoVCoVAoFAqFQt0CxeZ0NrOT8E4iPAnyJM5zwb6tra2xsbGmpoa8W1VVVVlZedZVZ1AoFAqFQqFQKBQKhUJ9pcVF9LNnSWAnsZ2EdxLhSZAncZ4L9p2dne3t7S0tLU1NTSTu19fXX/RUdSgUCoVCoVAoFAqFQqFuSnFRnF8ksJPYTsI7ifAkyJM4zwV7k8nU1dVFXhuZ6ujoIB+jUCgUCoVCoVAoFAqFuqWKBHY2uZMIT4I8ifNcsDebzVevXu3r6yNv9fT0dLsVmQ6FQqFQKBQKhUKhUCjUV1hcRGeKxHYS3kmEJ0GexHku2A8ODloslgFX9aNQKBQKhUKhUCgUCoW6JYuL7gMDJMiTOM8Fe5uryFukrCgUCoVCoVAoFAqFQqFuyWKTOxfjbTYa7J3O/wVxan8tFyTgNwAAAABJRU5ErkJggg==;" vertex="1" parent="1">
          <mxGeometry x="-632" y="589" width="1352" height="78" as="geometry" />
        </mxCell>
        <mxCell id="KdTVUO_jPhQBWrvJSr6B-41" value="" style="group" vertex="1" connectable="0" parent="1">
          <mxGeometry x="-592" y="809" width="290" height="130" as="geometry" />
        </mxCell>
        <mxCell id="KdTVUO_jPhQBWrvJSr6B-42" value="" style="rounded=1;whiteSpace=wrap;html=1;shadow=1;arcSize=4;" vertex="1" parent="KdTVUO_jPhQBWrvJSr6B-41">
          <mxGeometry width="290" height="130" as="geometry" />
        </mxCell>
        <mxCell id="KdTVUO_jPhQBWrvJSr6B-43" value="" style="shape=image;verticalLabelPosition=bottom;labelBackgroundColor=default;verticalAlign=top;aspect=fixed;imageAspect=0;image=data:image/png,iVBORw0KGgoAAAANSUhEUgAAALoAAAC8CAIAAABANSO7AAAAAXNSR0IArs4c6QAAAARnQU1BAACxjwv8YQUAAAAJcEhZcwAADsMAAA7DAcdvqGQAAAASdEVYdFNvZnR3YXJlAEdyZWVuc2hvdF5VCAUAAAQZSURBVHhe7dztUSM5FIbRDWXjcB7k4TjIgzjIw3nwf29tqyh2FihebIGle86PKabAX/Qzklptz18v8GVyISAXAnIhIBcCciEgFwJyISAXAnIhIBcCciEgFwJyISAXAnIhIBcCciEgFwJyISAXAnIhIBcCciEgFwJyISAXAnIhIBcCciEgFwJyISAXAnIhIBcCciEgFwJyISAXAnIhIBcCciEgFwJyISAXAnIhIBcCciEgFwJyISAXAnIhIBcCcnm5XC7Pz89PT0+Pj4/1Z31dxvf4r6a5VCIVx/l8/vsDp9Opvlv1jBvwr465VCgjii+oburnxy3b65VLzTKjgpBoDo1yiQaVdymmSy4PDw/jmF+nFjTjHltqkcutWjl0Lmb/XOrsZhzn22k7K22ey7fXtp+rlW/PvZnNc7ntNPRW3fN4jE52zmXS0PKq4QCzcy7zhpZDwwFm51zGUZ2mVjDjkdrYNpcZJ0T/120+2jaXTy4f3lC3+WjbXGYvXA5y2UQtLMYhnanb8mXbXMbxnEwumxjHc77xeD2YjK5idNmEpe4M2+byMyfS3d7MsG0usy8YHbq993vbXC6XyzikM40Ha2PbXMrs5UvDt9XtnIs3MNzczrmUeQNMt3Oiw+a5zFvBNBxayua5lBnvZGj7Ydj9cynXfyDtrZ7T0KFFLscH6MfRvk7nVkqLXA4+9Hq9RrmUWnN879Jj3arn2vYPvXIp6cRUoRhUXrXL5VDR1Ejz+WXIWqYI5Q9Nc3lV3ZSaaKqeiqPU1+adj3TPhYhcCMiFgFwIyIWAXAjIhYBcCHTM5diae92XO5/PD2/UXw/1A8WW3Vstcjn2bauMqmHs8IdOp9NRUgU07rSlbXN5HT++dwn6c3WfPdPZLZeq5JpRJHWMOn262SeXCqX+xY/D+OOajDc75DJpxvmeeib1fMYz287audSBGUfpzuwazaq51JnO/YwoH6lnuNl5+JK53O2g8q6dhpnFcqn17I+d9dxQDTP1zMdrWNlKudRvfPz6F7RHMcvksui48tYGxSyTy+qtHOpVjNezpjVyefqR/+D/Zyy9lbdGLnsMLYeaksarWtACuSy9wn3XupsxC+Sy00x0kMtEa23KfcW6G3dy+QVymUgu90Muv0AuE8nlfsjlF8hlIrncD7n8ArlMJJf7sUAuxyfKdmJXlxbkQkAuBORCQC4E5EJALgTkQkAuBORCQC4E5EJALgTkQkAuBORCQC4E5EJALgTkQkAuBORCQC4E5EJALgTkQkAuBORCQC4E5EJALgTkQkAuBORCQC4E5EJALgTkQkAuBORCQC4E5EJALgTkQkAuBORCQC4E5EJALgTkQkAuBORCQC4E5EJALgTkQkAuBORCQC4E5EJALgTkQkAuBOTCl728/AMx+NAsw2WkOwAAAABJRU5ErkJggg==;" vertex="1" parent="KdTVUO_jPhQBWrvJSr6B-41">
          <mxGeometry x="10" y="20" width="89.04" height="90" as="geometry" />
        </mxCell>
        <mxCell id="KdTVUO_jPhQBWrvJSr6B-44" value="&lt;font style=&quot;font-size: 25px;&quot;&gt;&lt;b&gt;1 586 486&lt;/b&gt; Contacts&lt;/font&gt;" style="text;html=1;strokeColor=none;fillColor=none;align=center;verticalAlign=middle;whiteSpace=wrap;rounded=0;" vertex="1" parent="KdTVUO_jPhQBWrvJSr6B-41">
          <mxGeometry x="80" y="32.5" width="200" height="65" as="geometry" />
        </mxCell>
        <mxCell id="KdTVUO_jPhQBWrvJSr6B-45" value="" style="group" vertex="1" connectable="0" parent="1">
          <mxGeometry x="338" y="809" width="290" height="130" as="geometry" />
        </mxCell>
        <mxCell id="KdTVUO_jPhQBWrvJSr6B-46" value="" style="rounded=1;whiteSpace=wrap;html=1;shadow=1;arcSize=4;" vertex="1" parent="KdTVUO_jPhQBWrvJSr6B-45">
          <mxGeometry width="290" height="130" as="geometry" />
        </mxCell>
        <mxCell id="KdTVUO_jPhQBWrvJSr6B-47" value="&lt;font style=&quot;font-size: 25px;&quot;&gt;&lt;b&gt;486&lt;/b&gt;&amp;nbsp;&lt;br&gt;Enquêtes&lt;/font&gt;" style="text;html=1;strokeColor=none;fillColor=none;align=center;verticalAlign=middle;whiteSpace=wrap;rounded=0;" vertex="1" parent="KdTVUO_jPhQBWrvJSr6B-45">
          <mxGeometry x="80" y="32.5" width="200" height="65" as="geometry" />
        </mxCell>
        <mxCell id="KdTVUO_jPhQBWrvJSr6B-48" value="" style="shape=image;verticalLabelPosition=bottom;labelBackgroundColor=default;verticalAlign=top;aspect=fixed;imageAspect=0;image=data:image/png,iVBORw0KGgoAAAANSUhEUgAAAKkAAACaCAIAAABdWf97AAAAAXNSR0IArs4c6QAAAARnQU1BAACxjwv8YQUAAAAJcEhZcwAADsMAAA7DAcdvqGQAAAASdEVYdFNvZnR3YXJlAEdyZWVuc2hvdF5VCAUAAALiSURBVHhe7dzRbdtAEEXRlJI60gf7UB3sg3WwD/ah/wyQ+QlpCktihH3Ld8+ndwF65kIGLMP69YYr2vuivS/a+6K9L9r7or0v2vuivS/a+6K9L9r7or0v2vuivS/a+6K9L9r7or0v2vuivS/a+6K9L9r7or0v2vuivS/a+6K9r57t53mepunPE8VcMV3Oqapb+9jO76eLGXNaSX3ax2si1/N0y7LkzHr6tI+firmbp1N+6dP+u2LSnFkP7b+L9nu0V0D776L93of2cTSi/O4P4ihn1qPVXnlTn404Ee1r0L4V7RXQvgbtW9FeAe1r0L4V7RXQvgbtW93Y1LZty4k4yksHeaPIhwfRvtWNTcXq89JBHOWlg7MH3XPjQbTfo70C2l9A+wK0V0D7C2hfgPYKaH8B7QvQXsEw7Xlvp9ww7cXRvhXtFdC+Bu1b0V4B7WvQvhXtFdC+Bu1b0V7BMO3XdY3THy3nb7fVfqbLhwfFac7wv/h63tAzTPvYe146uJHkHtoXoL0C2l9A+wK0V0D7C2hfgPYKaH8B7Qvc2BS/35cbpr042reivQLa16B9K9oroH0N2reivQLa16B9K9orGKY9/5dTbpj2sfq8dBBHeeng7EH33HgQ7fdor4D2F9C+AO0V0P4C2hegvQLaX0D7ArRXMEx73tspN0x7cbRvRXsFtK9B+1a0V0D7GrRvRXsFtK9B+1a0VyDXflA5wEEc5cx6tNo/D+33aK+A9t9F+z3aK+jTfpqm3M3TvV6vnFlPn/bL+R/jH2Zd15xZT5/2YZ7nXM9zxYw5raRu7bdti9XUfiaKjphL+RX/T7f26I72vmjvi/a+aO+L9r5o74v2vmjvi/a+aO+L9r5o74v2vmjvi/a+aO+L9r5o74v2vmjvi/a+aO+L9r5o74v2vmjvi/a+aO+L9r5o74v2vmjvi/a+aO+L9r5o74v2vmjvi/a+aO+L9r5o74v2vmjvi/au3u+/LEg9HV9zCZEAAAAASUVORK5CYII=;" vertex="1" parent="KdTVUO_jPhQBWrvJSr6B-45">
          <mxGeometry x="10" y="17.5" width="87.79" height="80" as="geometry" />
        </mxCell>
        <mxCell id="KdTVUO_jPhQBWrvJSr6B-49" value="" style="group" vertex="1" connectable="0" parent="1">
          <mxGeometry x="-282" y="809" width="290" height="130" as="geometry" />
        </mxCell>
        <mxCell id="KdTVUO_jPhQBWrvJSr6B-50" value="" style="rounded=1;whiteSpace=wrap;html=1;shadow=1;arcSize=4;" vertex="1" parent="KdTVUO_jPhQBWrvJSr6B-49">
          <mxGeometry width="290" height="130" as="geometry" />
        </mxCell>
        <mxCell id="KdTVUO_jPhQBWrvJSr6B-51" value="&lt;font style=&quot;&quot;&gt;&lt;b style=&quot;&quot;&gt;&lt;font style=&quot;font-size: 25px;&quot;&gt;65 % actifs&lt;/font&gt;&lt;/b&gt;&lt;br&gt;&lt;font style=&quot;font-size: 14px;&quot;&gt;&lt;br&gt;Répond à au moins une enquête en cours&lt;/font&gt;&lt;br&gt;&lt;/font&gt;" style="text;html=1;strokeColor=none;fillColor=none;align=center;verticalAlign=middle;whiteSpace=wrap;rounded=0;" vertex="1" parent="KdTVUO_jPhQBWrvJSr6B-49">
          <mxGeometry x="130" y="32.5" width="150" height="65" as="geometry" />
        </mxCell>
        <mxCell id="KdTVUO_jPhQBWrvJSr6B-52" value="" style="verticalLabelPosition=bottom;verticalAlign=top;html=1;shape=mxgraph.basic.pie;fillColor=#10739E;strokeColor=none;startAngle=0.20654931539664242;endAngle=0.8767881825393761;shadow=1;fontSize=25;rotation=45;" vertex="1" parent="KdTVUO_jPhQBWrvJSr6B-49">
          <mxGeometry x="29.999999999999943" y="20" width="90" height="90" as="geometry" />
        </mxCell>
        <mxCell id="KdTVUO_jPhQBWrvJSr6B-53" value="" style="group" vertex="1" connectable="0" parent="1">
          <mxGeometry x="28" y="809" width="290" height="130" as="geometry" />
        </mxCell>
        <mxCell id="KdTVUO_jPhQBWrvJSr6B-54" value="" style="rounded=1;whiteSpace=wrap;html=1;shadow=1;arcSize=4;" vertex="1" parent="KdTVUO_jPhQBWrvJSr6B-53">
          <mxGeometry width="290" height="130" as="geometry" />
        </mxCell>
        <mxCell id="KdTVUO_jPhQBWrvJSr6B-55" value="&lt;font style=&quot;font-size: 25px;&quot;&gt;&lt;b&gt;985 123&lt;/b&gt;&amp;nbsp;&lt;br&gt;Unités enquêtées&lt;/font&gt;" style="text;html=1;strokeColor=none;fillColor=none;align=center;verticalAlign=middle;whiteSpace=wrap;rounded=0;" vertex="1" parent="KdTVUO_jPhQBWrvJSr6B-53">
          <mxGeometry x="90" y="32.5" width="200" height="65" as="geometry" />
        </mxCell>
        <mxCell id="KdTVUO_jPhQBWrvJSr6B-56" value="" style="shape=image;verticalLabelPosition=bottom;labelBackgroundColor=default;verticalAlign=top;aspect=fixed;imageAspect=0;image=data:image/png,iVBORw0KGgoAAAANSUhEUgAAAKkAAACaCAIAAABdWf97AAAAAXNSR0IArs4c6QAAAARnQU1BAACxjwv8YQUAAAAJcEhZcwAADsMAAA7DAcdvqGQAAAASdEVYdFNvZnR3YXJlAEdyZWVuc2hvdF5VCAUAAALiSURBVHhe7dzRbdtAEEXRlJI60gf7UB3sg3WwD/ah/wyQ+QlpCktihH3Ld8+ndwF65kIGLMP69YYr2vuivS/a+6K9L9r7or0v2vuivS/a+6K9L9r7or0v2vuivS/a+6K9L9r7or0v2vuivS/a+6K9L9r7or0v2vuivS/a+6K9r57t53mepunPE8VcMV3Oqapb+9jO76eLGXNaSX3ax2si1/N0y7LkzHr6tI+firmbp1N+6dP+u2LSnFkP7b+L9nu0V0D776L93of2cTSi/O4P4ihn1qPVXnlTn404Ee1r0L4V7RXQvgbtW9FeAe1r0L4V7RXQvgbtW93Y1LZty4k4yksHeaPIhwfRvtWNTcXq89JBHOWlg7MH3XPjQbTfo70C2l9A+wK0V0D7C2hfgPYKaH8B7QvQXsEw7Xlvp9ww7cXRvhXtFdC+Bu1b0V4B7WvQvhXtFdC+Bu1b0V7BMO3XdY3THy3nb7fVfqbLhwfFac7wv/h63tAzTPvYe146uJHkHtoXoL0C2l9A+wK0V0D7C2hfgPYKaH8B7Qvc2BS/35cbpr042reivQLa16B9K9oroH0N2reivQLa16B9K9orGKY9/5dTbpj2sfq8dBBHeeng7EH33HgQ7fdor4D2F9C+AO0V0P4C2hegvQLaX0D7ArRXMEx73tspN0x7cbRvRXsFtK9B+1a0V0D7GrRvRXsFtK9B+1a0VyDXflA5wEEc5cx6tNo/D+33aK+A9t9F+z3aK+jTfpqm3M3TvV6vnFlPn/bL+R/jH2Zd15xZT5/2YZ7nXM9zxYw5raRu7bdti9XUfiaKjphL+RX/T7f26I72vmjvi/a+aO+L9r5o74v2vmjvi/a+aO+L9r5o74v2vmjvi/a+aO+L9r5o74v2vmjvi/a+aO+L9r5o74v2vmjvi/a+aO+L9r5o74v2vmjvi/a+aO+L9r5o74v2vmjvi/a+aO+L9r5o74v2vmjvi/au3u+/LEg9HV9zCZEAAAAASUVORK5CYII=;" vertex="1" parent="KdTVUO_jPhQBWrvJSr6B-53">
          <mxGeometry x="10" y="17.5" width="80" height="72.9" as="geometry" />
        </mxCell>
        <mxCell id="KdTVUO_jPhQBWrvJSr6B-59" value="" style="group;" vertex="1" connectable="0" parent="1">
          <mxGeometry x="40" y="210" width="210" height="50" as="geometry" />
        </mxCell>
        <mxCell id="KdTVUO_jPhQBWrvJSr6B-58" value="&lt;div style=&quot;&quot;&gt;&lt;span style=&quot;font-size: 17px; background-color: initial; line-height: 0.6;&quot;&gt;&lt;font color=&quot;#688a94&quot;&gt;CREER CONTACT&lt;/font&gt;&lt;/span&gt;&lt;/div&gt;" style="rounded=1;whiteSpace=wrap;html=1;shadow=0;fontSize=25;align=right;fillColor=#EDF7FC;strokeColor=#86B2BF;" vertex="1" parent="KdTVUO_jPhQBWrvJSr6B-59">
          <mxGeometry width="210" height="50" as="geometry" />
        </mxCell>
        <mxCell id="KdTVUO_jPhQBWrvJSr6B-57" value="" style="shape=image;verticalLabelPosition=bottom;labelBackgroundColor=default;verticalAlign=top;aspect=fixed;imageAspect=0;image=data:image/png,iVBORw0KGgoAAAANSUhEUgAAAKYAAACVCAIAAABdBBYjAAAAAXNSR0IArs4c6QAAAARnQU1BAACxjwv8YQUAAAAJcEhZcwAADsMAAA7DAcdvqGQAAAASdEVYdFNvZnR3YXJlAEdyZWVuc2hvdF5VCAUAAAPYSURBVHhe7dvhcdpAFEXhtJJCKIRC6IM+XIgKoRBy431mmMFISOyyenvP9yMzmWDJ6OithOz8ucIMye2Q3A7J7ZDcDsntkNwOye2Q3A7J7ZDcDsntkNwOye2Q3A7J7ZDcDsntkNwOye2Q3A7J7ZDcDsntkNwOye2Q3A7J7ZDcDsntkNwOye2Q3A7J7ZDcDsntkNwOye2Q3A7J7ZDcDsntkDxM0/T17Xw+60/9VS6XS/zzQNyTq+7pdPr73PF41GtGau+bXCEPh0OEfYGmf4zwjsm1Yq+KfU8nSmwlLbvk6h31tso+7l7J5y/br9MFPm91o+SazihWQ95Zd0n+/nr+SNVj66lYJNc4RqXaMt7NWSSvu6Tfy3hRHz95uxEv0g36+MnbjXihQY89JTF+8ijTUq61vX9y3UtrbfzV+4ey9ape5Lp17598ZuHV2RAv2qr1ql7kWtsHT17rcdu8w+EQ+8tg8OSav9hWY7G/DEheR6I7uMGTb/4h6VqxvwyY8jpifxlw+1YBt2/rNE0+s/GK+JC2TtPk2kJsqyW9hdhfBoMnlw/cwfHAdZ3WyVtfznNdyGX85BrBpoOea1WXhsl1rNVs0cwUfv38r5F5i+vqzFn1pnQjLg2Tf+YDkujMiF0+0W7QdcLFPvKwSC4a9OrV0y3phUtyqbu85/osfs8oudSqnre3eCWX91f41L3FLrnonmtz9bX72iHH5IW+alV4vZ34yuR8kxeaeC3UM+31LrT9XI9U5zVMriOlC+ciHfE4ug90uONFs6r0+P9M5/t3bbVB/SkjZb7XMPmLdIij8AM1iBehHpLbIbkdktshuR2S2yG5HZLbsU6u7ZenLvoeTt+Od24PgvQyGebJjFfyW91tP1bRV+lUKCdB3jNg/OTKvLnxvLIYpMs/bPJSOjbUntprjyna90+urmrzqw1H8MOlH+1/7vsnr0WxdbjjwPem68huh36E5Dq4LS7VVewwfO7kWkL3M9nPlImP73gHEiefue/bIZ2aOxn3rMn3P9yPNO57qJ4vuY5axt433avnS566t3Sf9WTJc12/n+lbPVNyHaY4Zvnp3I139XGZkvd9rFZXx0FPk3ykES96fVgneTckX6ADFIdqFLpOxXv7LJJ3Q/IFJK+F5N2QfAHJayF5NyRfQPJaSN4NyReQvJY0yadpOo/lnV/Zfkea5KiF5HZIbofkdkhuh+R2SG6H5HZIbofkdkhuh+R2SG6H5HZIbofkdkhuh+R2SG6H5HZIbofkdkhuh+R2SG6H5HZIbofkdkhuh+R2SG6H5HZIbofkdkhuh+Rmrtd/ARnfcyxUQmYAAAAASUVORK5CYII=;" vertex="1" parent="KdTVUO_jPhQBWrvJSr6B-59">
          <mxGeometry x="10" y="5" width="44.57" height="40" as="geometry" />
        </mxCell>
        <mxCell id="KdTVUO_jPhQBWrvJSr6B-60" value="" style="group;" vertex="1" connectable="0" parent="1">
          <mxGeometry x="-250" y="210" width="260" height="50" as="geometry" />
        </mxCell>
        <mxCell id="KdTVUO_jPhQBWrvJSr6B-61" value="&lt;div style=&quot;&quot;&gt;&lt;span style=&quot;font-size: 17px; background-color: initial; line-height: 0.6;&quot;&gt;&lt;font color=&quot;#828282&quot;&gt;Rechercher un contact....&lt;/font&gt;&lt;/span&gt;&lt;/div&gt;" style="rounded=1;whiteSpace=wrap;html=1;shadow=0;fontSize=25;align=right;fillColor=#EDF7FC;strokeColor=#86B2BF;" vertex="1" parent="KdTVUO_jPhQBWrvJSr6B-60">
          <mxGeometry width="260" height="50" as="geometry" />
        </mxCell>
        <mxCell id="KdTVUO_jPhQBWrvJSr6B-63" value="" style="shape=image;verticalLabelPosition=bottom;labelBackgroundColor=default;verticalAlign=top;aspect=fixed;imageAspect=0;image=data:image/png,iVBORw0KGgoAAAANSUhEUgAAAIkAAACLCAIAAADaji2VAAAAAXNSR0IArs4c6QAAAARnQU1BAACxjwv8YQUAAAAJcEhZcwAADsMAAA7DAcdvqGQAAAASdEVYdFNvZnR3YXJlAEdyZWVuc2hvdF5VCAUAAAVHSURBVHhe7Zu/SjNNFMbfW/kai1xCwMrCygswtRAQLO0tBMHKwkoQBAsLEbwACztJayGksrCxsrbze2AO4vvu7tnZzczmmfX5FaJm/iTnN2fObLL58yVYkRte5IYXueFFbniRG17khhe54UVueJEbXuSGF7nhRW54kRte5IYXueFFbniRG17khhe54UVueJEbXuSGF7nhRW54kRte5IYXueFFbniRG17khhe54UVueJEbXuSGF7nhpTA3z8/P9/f3FxcXZ2dn5+fn19fXj4+P7+/v9vC4KMMNfMzn88lk8l8D29vbp6eny+XSOowCdjeXl5fT6dQMRLC/v4/css6Fw+tmsVjs7OxYyDuCHLJRSobUzdXVlYW5L7PZrPQ6xOgGdd4CvBpbW1uvr682aIHQucEZzEKbApwRPj4+bOjS4HLz8PBgQU3H3t6ejV4aRG4+Pz83NzctoklBLtocRUHk5uTkxGKZmo2NjRLPBSxuEDsLZB6Oj49tpnJgcZPqbNbEZDLBnmmTFQKLG5x3LYrZuLu7s8kKgcLNcrm0+OXk4ODA5isECjc3NzcWv5xMp1ObrxAo3BwdHVn8MlPWdSiFm/l8bsHLzMvLi01ZAhRuZrOZBS8zi8XCpiwBueFFexovOgvwQuFGZ+haKNzo2rMWCjdA79lUYXGj9zqrsLjRZwRVWNwAfbb2D0Ru9Jn0PxC5AbqX4ydcboDugfqGzg3QvYMBRjdA99wCUjdA96rzugnoOx7s6LtRBZD2O4Vvb29PT0+3t7cYDT8B/sQ/7eF1U5ibJCD6kOFc5+IhNIAn67AmfpcbWNnd3TUDEUDSGg39Fjewcnh4aCHvCDraKMPyK9x0TZcqSKDh69D43WBTsgCvxvD728jdYLFbaFMwcPaM3M2KW1kV6LGh8zNmN8nFBDCsTZCZAtxgG8FGH64QAU5NiE7A2WFiygySAIRhMX4Y2R5zGabwMLpBxEO8WiNlHepo7YsG1vRvwuzWqIGmvmlhcRMiErlsA85lR2vSYC5r2kCrngFSZ81u8Apbo9AEdiEbpYJ/mRkZVoxvHepotbs663ETs2+04hQbVBFrVKHTduQ4xhTWKBtDu8GadQLXCRuxDmtRh7WIA/qtWx3O4kjCcG4SWgnYuBUwkbWo4JSoJpwSGLk39mYIN1hfnYp8DM6W4tSJHm6cvdcpeEnI7savqL1xyoYzY49oOlmY+ziQ103ydPnGceOs9B67UFrTncjoJp8Y4OxpaVe6c1Qr1U1WMaCfGyfbmnDOL0We01a/donBJqvgHHwR6K4BtZ51WItspHfjhCYtTvFwsrbTUc0Zx0ncVKR342zQaXGKh5+4kXXCOQWA3MUGpHfjbNBpcYqHU3IAnmHrocAXA3IXG5DejT33/Pi7SuthBPldG1/8M6avtc5JYjf+gk2OU3Jiyh7sQgMCjSwBSKZWK4EBkgaU7cZfv5GB7oHyph0sfGcJ46F8xW8APWW7AX6MYna23uTWU7wb/0QAytVTvBvQGqBCN7cxuAGY155BA9CT752kTHpG4sY/FHyDNp0Ob9CJVxQjNYeekbgBCLo9iTZCDjmSYBoNrHV0ziXXk9hNeBnrIiZ1foL2WEzfF574vWmEtehJ7GbEDK9HbjowsB656UaMnvjK5yM3nfH1pBID5KYPTXoSigFy05OqnrRigNz056ee5GKA3KxE0JNDDJCbVYEe+y01csOL3PAiN7zIDS9yw4vc8CI3vMgNL3LDi9zwIje8yA0vcsOL3PAiN7zIDS9yw4vc8CI3vMgNL3LDi9zwIjesfH39Dw3gkrMH0VRSAAAAAElFTkSuQmCC;" vertex="1" parent="KdTVUO_jPhQBWrvJSr6B-60">
          <mxGeometry x="10.579999999999984" y="5" width="39.42" height="40" as="geometry" />
        </mxCell>
        <mxCell id="KdTVUO_jPhQBWrvJSr6B-64" value="&lt;font style=&quot;font-size: 23px;&quot;&gt;&amp;nbsp; &amp;nbsp;Recherche de contacts&lt;/font&gt;&lt;br&gt;&lt;br&gt;&lt;br&gt;&lt;br&gt;&lt;br&gt;&lt;br&gt;&lt;br&gt;&lt;br&gt;&lt;br&gt;&lt;br&gt;&lt;br&gt;&lt;br&gt;&lt;br&gt;&lt;br&gt;&lt;br&gt;" style="rounded=1;whiteSpace=wrap;html=1;shadow=0;fontSize=17;arcSize=8;align=left;" vertex="1" parent="1">
          <mxGeometry x="-452" y="699" width="940" height="380" as="geometry" />
        </mxCell>
        <mxCell id="KdTVUO_jPhQBWrvJSr6B-65" value="&lt;font style=&quot;font-size: 14px;&quot;&gt;&lt;span style=&quot;white-space: pre;&quot;&gt;	&lt;/span&gt;https://pilotage-enquetes.dev.insee.io/contacts&lt;/font&gt;" style="html=1;strokeWidth=1;shadow=0;dashed=0;shape=mxgraph.ios7ui.url;fillColor=#e0e0e0;strokeColor=#c0c0c0;buttonText=;strokeColor2=#222222;fontColor=#222222;fontSize=8;spacingTop=2;align=left;" vertex="1" parent="1">
          <mxGeometry x="-630" y="70" width="1350" height="30" as="geometry" />
        </mxCell>
        <mxCell id="KdTVUO_jPhQBWrvJSr6B-66" value="&lt;font style=&quot;font-size: 14px;&quot;&gt;&lt;span style=&quot;white-space: pre;&quot;&gt;	&lt;/span&gt;https://pilotage-enquetes.dev.insee.io/contacts/recherche&lt;/font&gt;" style="html=1;strokeWidth=1;shadow=0;dashed=0;shape=mxgraph.ios7ui.url;fillColor=#e0e0e0;strokeColor=#c0c0c0;buttonText=;strokeColor2=#222222;fontColor=#222222;fontSize=8;spacingTop=2;align=left;" vertex="1" parent="1">
          <mxGeometry x="-632" y="559" width="1350" height="30" as="geometry" />
        </mxCell>
        <mxCell id="KdTVUO_jPhQBWrvJSr6B-67" value="" style="rounded=0;whiteSpace=wrap;html=1;fillColor=#efefef;fontColor=#333333;strokeColor=#666666;" vertex="1" parent="1">
          <mxGeometry x="-632" y="1310" width="1352" height="850" as="geometry" />
        </mxCell>
        <mxCell id="KdTVUO_jPhQBWrvJSr6B-68" value="" style="shape=image;verticalLabelPosition=bottom;labelBackgroundColor=default;verticalAlign=top;aspect=fixed;imageAspect=0;image=data:image/png,iVBORw0KGgoAAAANSUhEUgAABUgAAABOCAIAAAB9gWtPAAAAAXNSR0IArs4c6QAAAARnQU1BAACxjwv8YQUAAAAJcEhZcwAADsMAAA7DAcdvqGQAAAASdEVYdFNvZnR3YXJlAEdyZWVuc2hvdF5VCAUAAB4sSURBVHhe7d0LWFP33Qdw2rq2e7e9e9bt3dZ1e7s9fdu1XbtufffO3rvtrX3XWrd21d6k1kutilfwgqig3JMA3hW5JSEkIdzCNYir65y4tipahYoRkHuAKAIBCQkJyfv/n3MCOYckoIKV9/3+ns+TJ5fjOf/zP0eefPM/F7+/o1AoFAqFQqFQKBQKhZqy5XfvhkoAAAAAAAAAmHJOnDo7MDCAYA8AAAAAAAAwJSHYAwAAAAAAAExhCPYAAAAAAAAAUxiCPQAAAAAAAMAUhmAPAAAAAAAAMIUh2AMAAAAAAABMYQj2AAAAAAAAAFMYgj0AAAAAAADAFIZgDwAAAAAAADCFIdgDAAAAAAAATGEI9gAAAAAAAABTGII9AAAAAAAAwBSGYA8AAAAAAAAwhSHYAwAAAAAAAIzLs2F/mxerCd15YM8+iTI1OlcWoU2PVaSJ9ibt3CDeu0CS+/y2I4J/chMg2AMAAAAAAAD48timfy6Mku3dsS1z/6bMA5uzkjdnp2zOTduqlW3TyiLyZFEFiljyyD5JToxdlpD9yy2fCWYyeRDsAQAAAAAAADx7cOPxZVFJ8h1rNYmbM3Zv0CRtyUreqkkKzU4Jy5VGEFpZVI4sMos+idbKo/PTYwitPCo3NTxwh+rnm04KZjgZEOwBAAAAAAAAPHgtLGdXTCBJ9co9wep9IZmJm0meVyduykzakp26VbpzLT0UXx7plue5J0SBnD5qMrbPFpUKZjvhEOwBAAAAAAAAhBZt3ZcsXpkWt0a2Y212Uqhi13rlno1ZyWE5qaEk1edKw5kR+0iigIn0NNXL6ZMCRSxRnCEuUorzlaKDWdtXxisEM59YCPYAAAAAAAAAPHuV+XsiPkyWrJQlrFHsWpexe51y74aspM2aJDponycLz0ndls+MzzORPjJPTl6SkB+eJ48kqd7w1FPuAhf/STVzqWAREwjBHgAAAAAAAGBEZtnnl2tO1J8uTYtfkSxenhizRL0vmAT7nJTQ3LQw5b4NWcmbtbIIojCDBPvIgvRorSy8UB6TL4/JSxflp0ezeb7VFez9/PzI4+RlewR7AAAAAAAAAM6B4i+6L568dOFzU9NZY93J1LiV6TuCNPuCk0QBWXS4fkueNDRPGpaXtrUoI6ZIISJ5vjA9liAv82QR5FGnjmPz/JGIVe7Bnli2QiJY3IRAsAcAAAAAAACgVsrOdtZ+RvQ2nemqP93XVt3TcOJA7FLV/uDM5E1ZqZvVicE5qfQud9nJm/OkWwvSSZKPypeHFyoiCxXRNOpnxBRmiNgYP2w42Nc9/+zSefsFC71xCPYAAAAAAAAAlY9vq+yoO93ffHagtcrUdMbUdLa74UxnXUV3/Yn0HYHqxI05qfRQfII80Uq3FWfElGTEEjq1mOR5erU8hYgO3SvFbIz/5O1Z4fff/+73v787OoB958Lzz1547vePrTkmWPQNQrAHAAAAAAAAqNxfcqan7jNTU1V/S21fe1Vf83lTw5m+1sre5rNHCxNV+4OzU0I19Oz6bXnS8EJFdLGSHn6vU8cWqyQl6riijCiS6ouVMUVKbsQ+P52O3rOfsu9Eb1pMHnf9ZaNg0TcIwR5uFf5H+k1DTkunKUQs/AgAAAAAAGBSPRVTZddr2nJ/MPC32/qP3Wuu3T/QUdnTeKa3uYroqT+tSdqSnRySnRqaJ92aTy+YF8Uee88ch09DPgn8JNjny8ILM2LYGF+kpHe8K0iPINh3YrYsKc2g4/m/XXlY0IAbgWAPt4Zck9FmK9c1q40OU53xNcGnAAAAAAAAkylelmjU+DmP+A3q/RxN37O1fLu36i1r+8W+lqr+li9NrV9eufi5ev/6POm23LTwfHkESfLFGeISVUxppkSniilWRJVqEoqUEjo+r4z3Y6owQ5SfHlMgC8+Xhs97ewZ5J3XHxlJ1wn8+8fA3py8QNOBGTHywVxudvBpymIx96sJawWTDhNO7quakcEpWeJ2dfmzuCx/1kRf6gKO9NVcdzFydTpu9Rn85wPOYcFcNN5GnMnaNmp4z/aSFm4Y2Wy/4dJTakFP9TcPtof3TK8323D9eOseiHjUlAAAAAAAAXLcvVT+0HvIbOnf3d+68a/X8N9cu+dBpnGltLbd01PaRYN9wpq+t+tynBTmpoZqkTUUKUW7a1hIVPbu+RCUqy0woVUkOaXYcVMeTjwpUsUXqOJLqS1QSJuqLdJnxuswE8lisFBElKrEyfY+gATdi8oM9V/aqo/WCKVmTHOz13PSC6u0L95DtrzPYJxqYCYaYR8Nlwac84rbyXmYyQXlZna8m2Lv9TsEV1zzaP5b2rjluE9MWjvSMPuBoX5OZ+SdDDlN7d8hu3pSmurbhl/duaCs3u97xskSfqz96Y9nLi9k5NyTWWU3s5hiyGxs6vfyOMyayiOF5Mor7TOw79ImHYleH7nLDG5SumoftxZtmgz7klMVkY2ZBf+gxidz6jdFRYaX9PJ17SbvOQ7ltJn6xa+F9dchz/iawXLUcPtLgmnLM5l2D6erL5V2u/5Jma/nIUgjegowt3W4nZfja98bx30TQgS67Ddp2u4XdVWz2mlMGdgKfM5zI3hjF26475rZj29ZymPx5MXTyVjOlu4msehXpZ7f/cQAAAADA9+ddVV1ZfoP/8BMv/Jfl789YNPM3rzz3cOC8l+w1/gMd58xt1b2NlT0tlV31FQXp4erEjYq96+nV8pTRJMaXKKOTJEtU+4Iy9gUmxy8ldkUsSI1fnpkUrJWFFWWElyijDmVLDmbHlWri/pqzU6eS6NQSrTz6xYijgmZct0kL9lzGqA061mdkvwRb+0X8KflcWcV7fmZdU7CfftTM5hVTU2cQ+f4trt/pyvnG6hbBxO5cPwfwv0x7ZqSZgUxZxyzK2r9TOMGwenU7N1BvbOkKT6Jj+9OTGkXH+2qMvR5Xh9+ZN4uXLOpKjI6a4yO/0QyHK8L/pMXidDRVdQRomgMOdlWRjHF15AcUMqXPYO9xiRx+DGbRxnj89Se8xu60WXUHG+eIa/0LOyuuCgPhuPlMUxwPzbjWYD/nOOk3e8Uxg/9u/Rxlh67TQfvNffrD/Uz4tGpT3N5kuPe/i7ee8bk6bu2cITNIm8j+bzucTV+O3bzxS+mqsdHLKIiU9TPInl9lJXMu13EHuQRVk78UJF2z+093DfmD0Nntz/1bulI+9j2Wp/2E4bkD28qvkl20X1rYMGN3Q8ixfhOZ/0n3Hxo8zHAie2MU77vueLfdnLPkj5FF7fZL1pwvyDvsiiPYAwAAAHgVnXems/jHQx/fmbX+u6ve+eNf/vuxl39936zf/sTWOMvcUmkx1JJs39N4pvPiidZzR9gT7EtUoiJFeFbSxlJ1VLEisixLrFPHFiqiyjQSkuTpFfXogfoinSquWCUp1SSUZIjLNAllmu3FKvK+pDRz+0c7CgXNuG6THeypID2b7O3lhSOTjTIZwb5e28nMk/ebAjOoRcrnHLilCL5Me0QyA5mQ5HlNL7PqjopDo6ZhHWKmJN+7m4zCkUMvRnfmzeAz2FusDqfNnOgW112bjA6K8mIDSXFDzqYvuCRGprwpwd5A0pr7gqYfIzuWVesWdcbNZ5rieGgGr7XjCPbqdppgR3aJbLIjkbjrerlBLzU4LQ1dZL81Vje73uSMDrfee8bn6gjbebmKbLuzdNuN1bxrIGpw0P8pI9uiXtdF209nLu5kluiWq+mCnFVH2Zd0pbzvexxP+wnhuQPZxKuTDU9WubPJIfjno2c4gb0xio9dd9zbjhmfdzshiPkbyB2qgGAPAAAA4FVBxQVHvaKvxM95/I57br/9zRefmvHME/Yrbzkurh5oqTK36PuaK82Gqsu1n125WFGoiMxJ3VqWFV+qluiUkrLM+Io1C06vmn9QE6tTR59aNa8sfRuZ5uiHb5I3K1Z+cGrVghJ1nC5TcmrVfJ1STA/IV4lI1I9KVAiacd1uRrBnvneSEiQigckI9jSc0OIfHs/NwWfYc03ju80UNyVdBLcK3r46h9Sw8+QGQsfDQ2feBF5jNpMYT9EjFCyGy2y2GQlXhUzS4CUcPQ0V7dwGJVPye2aSgj1NcU6zOVE95sUOxuQzTXE8NIPXWi+r5j4N/eVryKrzdh0KMdcMGkR7e4P4n44Ot957xufqCNtJtzIbg8do3jVoJtHa0mR0f3OOrlP7WRsdlD5KQ6yON6JOp3ftM8xKedv3XDztJ147kJ5B02XiHcqRbdSeMrr38OgZTlxvjOZj1x3/ttOz3cL99JBiIjm/6hg7QwR7AAAAAK/O+T/oaP6s/+QiR+nt9uO3DV389lD9N4fqX3Q2FNmMNZaOWku7fqD9vKnxTHf96c/K5Ok7g0oyoun18NMjizKi2Cveb1rz3kE5vfq9+pFHmn73AvvmsFIpvVT+kSeeKFHGlSglJer45LT9gmZct5sR7OmXY1qCb+0CkxDsmS+1pATfZZmjVUnxvyjzudrsaxoGzR6kmk7Rr87cyfa9vQHCySiuZ1zH6nMv2fKyOrxphms8634jaE7glSslcolxOj1IwVFxmK4ymyLop8c9JFg6BOraoGRKn8GeV76iMoc2hlfDe47scnkXPeXB0mOpqDLSUzBG/tU18ZmmOFyfuL3Db+04gv29YnqmN12Fq9aqOu4cjWEjcZSOaQuPBxnp/xHeesbn6ri3U9yc6HYovu/mXQufwdJTR7mtHdfPnvc9F0/7idcO9NR1Qh5mOGG94YnXXXfc2254nJ/5Y0v/1g2ZE7mPEOwBAAAAvDL5f8sy+07nlSqbocJxbqu90n9Av8XZdtLeecp2uc52qXagXW9uq7Z2XOhtOnvun7klKlG+PKI0U3woK64gPZKN7pvW+B9SRJMnJNg3v/g8eZL36KOxP/sZ+2n82tnkkQR75d6Nhekx+YqIC8/9XtCM60aCfXd396SeY9/PXWass9vnec6TEOzpd19awu+yXIwUJDQebik+p6G43w5shzX0pevy+J5/wuD3jOslW15WhzfNcI1n3W+Ep4jFGA6x+kQDd0z1SDq60WDvcYkcT4FtuDEe6efoOg83MNchG7JXHeOdOD1uPtMUx0MzeK31smqj12hGtlFbZzHSH50cTdVtroO96S9HrtMZmEPK+SPeI/0/wlvP+Fwdbtd1lc3Gv6ydt+ZdkwkI9p73PRdP+4nXDvTUdUKeZkhNRG9443HXHXPbuXcdcxoFXWXmEImGDtf7CPYAAAAAXtnmTXP6T3Msvb23rbav5vPBps8dhrOWdr3tUv3QlXpL+3mrsabfcK63uXLAcL7muLZYEVOqEuvU4rKseIKN7iTYl6Vzwb6JCfZ+fn46lYT99JCCPiHBvkyToFNLDmbtaH3qaUEzrtukjdgLymZRu53L6skkBHvupHfhd9kJHLHnZjXcGNcxAsMnlrvjeobfct+r4/GfTDqvMdstMYovV9lox2qH09Gtcii+QK2owe42aHlNfKYpjodm8FrrZdU8rRFLH3CK7FTcT0Xseea8GjJL3U4h8ZROvfWMz9Vxaye9iJ3bqex8/OZdGyZn8n+YmJ7UGKCsp8F4PIfie9v3XDz0qvcO9HAo/u6GAE3DDLd3vG8m1o30xpjcd93xbjsW/UGts3sO/QPofogHgj0AAACAV/b3p9nn32VbeLdJPLOvpdLW/uVge7X9Up3tUo2l4wJJ9ea2anPb+b7mMwPt57sbTxUrRQczt+vU8QezEsqyd7DRPXjle+XRq8kTfrCPYz8tGz4UXx1XqkkgJjbYDw4OTmawt9npbavGPhx6EoI9EwZoeT7HfqwkSUuQ4gSY01k91ugba7Hftmnx0ovv1bl1g/0G7vLgJrLVuE021sXz2vk5irtYGvPpBAZ73knFDB0TgXxduNEbugiuhQz2IGd++PTQDF5rxw72zNnserd7NIiZ658dp8/p1eZ4+xLtZLdLo11rsPe+Ou7tFNMmuTalr+ZdK/bieW5XsvR58TwZsyndLp7nfd/jjN5PfHQge/E89+vkj+PieRPZG0K+dt1xbzsWvU6ntbzOxr8oA4I9AAAAgFc97/+r44NvDHz0gH3VI47jBZb22oHWL63tF2yXa4eu0EH7wfYakupNjTTY9zZXpe9el52yid7xjt6jnhuT//jxx9knf/zOd0aCfSY3nn9QxgX7g1nbCzPone0n9lD8oaGhSb543rhMRrCnI360PF4VXzBYx8ctZYxg77o43+jyNETMfBen5X6nPd+rcysH+5G797k2Ge92d4Wd5T3MncBcA7/MrQfpp4uS9DNkHfREZZtF7S2Z8I0ObN7jK9Mqs0VL7xmmn5PraoZwsvFgjvoevv0YcwO2UXfO89AMXmvHDvbsTc5s5fQOapX8nqExUnD0B02qbme1XEuw97k6/HbOoS+5K8Z7b961k9Hb3Znau0WyWnqjxzFvdzeSS8fY91ij9hOfHSimt7uz9PRJc+unj/t2dxPZG0I+dt1r2HYM7s8p7zcIBHsAAAAA7y4sftT5wb/aVz7sWHyfJeaNgZYT1tYvza1n7FcabVcaB4x1lo4LA+36q63nyGNfW7X+RGGhIro4gx6QTyj3BbPpnbU24G022Lsrk8e6vyxVSY794Q1BM64bCfYOh+P/arBnB+Voue5jz14VjBTvhtijcUvxHezZG93xh3Bdp9k7Kg6PvOniWkcmvZBgQL6v06NtSXlZna8u2AuKjQ2jEiOT09w2mT7gaF8Tt46kHPyT23mfmnr6pcNX//a6RM7ofMU2RlBc28hW1ltM7D0Whxymrr7EMU4D8Y7Mqo4525nOym5s6AwQHqA+nmDPL6a7+GtUG3LKbHT1jOWqRaulPeN+FbQRdK8bubGCt2AvqJGe8bY6wnDI/P5lZKOj5+Zdn+nqzooe9j8XndVh3pn8+pBTIxuOHukz0ttj7nuUYD8ZuwN3d+iMduYW9+R/ma3qlEFwoI2nHW8ie0PIx657DduOYm4yKji6BMEeAAAAwKuDK962Lfo3x+qnnYFP2pc9aNJILB16q6HSYjjvNLWSbG+7TLO9ue18v6GaBPuKv6nyZJFaeUSeLEIrpxfGPzN7JpvY/fz8slLCKhe8NZzhWQfldMR+WLEqTjVzqaAZ140Ee/I98asM9tz0o0oQlobRr9qeysv0DWojewA8r0yGTn/hlDyupfgK9nToj5TgGviu0+zdrlk1Yrqu18h+axeUl+7y0jnCL/G3pFqR3kaH6Ks7XhN+BAAAAAAAcAsRB8cNfnS/dcUvnNFzHR/d74x5x9J63tp61n65zt7VNNjZQCL9QLu+t7mKBHuz8cKXn+blpm3LSQkrIPFeGl6sjClWRn3ta9NIqi9UxBYrY/Pl0W++9iJ5yVbwKv8SdRz3gqlSlfhbz68QNOO6/Z8P9vxBMJKJmXE59+tjeTSOYM8NvwsuBjYyLO+tB3YbtC224fbQcbkeS/lnwqFC1lQO9pT/ka7rHy0HAAAAAAC4KV7f+okj4JfOpT8divF3Ln/CtvpX5k/U9la9va3W1lVPh+vb9Nb2C1dbvzQ1nulrqz6mS81NC9Mkb1LtD86TbtXKIwszYooyYjIPhBQqRAWKWKIwQ1SkFGvl0ewTVrFKQtCL56njX4z4h6AZ123igz0AAAAAAADA1FK/dcnQR/c71j/nDPytY9F9dlmQraPOzuR5q7Fm8HLdoLF2wHC+v/Vcf4detX9TVnJYVuoWTfJmrWxbniwiPz0qVxaevmddbgp5HkPSO8nzJao4NsznyiLVB0LJE11mPBvslYq9ggbcCAR7AAAAAAAA+P9uj/QTx8J7HR/9xL7sp44l99k3vOC83GBu+8Laoac3veust1y6aG6/YG45bzZW/88zDxTJIwrSo/Jk4TnSreSROd8+SiuPJqk+XxZdmE5H7IfH6kmYL1bG5knD86TbSjMlxRmi5QnZggbcCAR7AAAAAAAA+P/u6a0nBxbe1b7yMfvCrw8t/Hr3gnusV5qsBr39Up3VWGO7XG8lLtWZ2/TvzXyhv1sfvfb13z35A1XiFk3KNhLpc9LooH2BIlorj9TKIuhh+UlhJNgXKGJL1HF0oD5DXKKUlKrjS1Qi8vhE6OeCBtwIBHsAAAAAAACASlnA4qH5d5rfu+Pq3K9ZNKGDVxqtxlp7Z4ONPLnSYLl00WqsMzWf/tPTP37o3rtn/OeP3/qfnyv3BysTgzUpmxX71qduD9TKo3OlEVppVGF6LIn6JPDnSiNJtj+Ytb1IISLZvihDRJ5v2JsjWPQNQrAHAAAAAAAAqPzluiOX/L/lXHCXY/40W3mGpbNmsLNusPOiuaN24FKtpUNvv1S9+C8PRq+bu23FK1uWvDz/9V+rEzfuCp+vPrA5M2lLTto2Euz3RC/NT486cbSwj6m3Z7+Z+OKsd2fPJk/ixKJilSQrPeGhkBOCRd8gBHsAAAAAAAAAKmhVhHPR3Xb/2+1XW8ydDZb2uoF2van5zJW6Ex3n/v7tabenJXz4sx99e928pwPf+9WCN57MTQ1NjV+tStyk2LdRk7w5TxaVnRZGEv7xfxSQVN/Q0EDy/PvvvUseP/5oHQn2hQrRbFGpYKE3DsEeAAAAAAAAgCMPeM/xll/vpfqrTRXt545m71//3MPfm/vSg8vf/PlLv/nePXdN2/jB8//1E7/lcx57Zfr303cGyXbSYK85EKZJDs1KCdPKI3PkUcf/UXjJaGRH7FcsW0oe35kzmwT7tbsyBYubEAj2AAAAAAAAACMyF8/N2B0St8H/1f/60aznHnjkvm/MeeGnH856KDbg2fXv/0ay6pWQhS/MnfHQgjd+Jdu1TrE3RL57vXxXUHzovOyULclxK7Kk2z79u9ZkMrHBftPGYPK4eOGCpZEywYImCoI9AAAAAAAAAM+jz7782gsP/f63D/zHD+/+xh13vPvq47ff4ffAvfdErfr92vnPbF7w3MKZjySLA9ISgtJ2BEl3rs3YE5K+N0S2J1iVHKZI3PzPI/n0DHsm2LNe+mCzYBETCMEeAAAAAAAAQOjfn3nn6Ue/++wv7v7Ov0z77t3TchODG07I5/73D4Lf+/Xqtx5/7ekfpm4PTNu5LiUuULZr3a7Ijw7ELt8Vs1S+O1i6J/jTI/lqtWpTcHBPT8++PXv+vC5ZMPOJhWAPAAAAAAAA4MHDc6N/9+SPnn/smz+6565v3Xnbv3/jtsWzHlz25s8D3nwycMHLG5bM2h0VkJKw6oBkJQn50h1BB7avke1YfyAh8Mhfs9QqVV9fn+FS929WKAWznXAk2BsMBgR7AAAAAAAAAKH7A4++umhd+LIZMatf3r7u1S3zp6+Z+9z20EWbls1au/CP65e8lihekSRZkyhZnRS35oBkdUpCEJG2Y510T/AykXTC72znEQn23d3dCPYAAAAAAAAAnj0UdPi1pWHvv/7Mq9N/sidy0fYt87aHfhCz7p0Ni1956+XHDsSt2RUTsEcUsE+yYmf0ksjwwJeWRj649hPBTCYPgj0AAAAAAADAuPxiZc4flsT6Lw9cMH/2mkUzV7z7uw9enx4dviJww+p5a8NfWXvg1+t1gn9yEyDYAwAAAAAAAExhCPYAAAAAAAAAUxiCPQAAAAAAAMAUhmAPAAAAAAAAMIUh2AMAAAAAAABMYQj2AAAAAAAAAFMYgj0AAAAAAADAFIZgDwAAAAAAADCFIdgDAAAAAAAATGEI9gAAAAAAAABTGII9AAAAAAAAwBSGYA8AAAAAAAAwhSHYAwAAAAAAAExhJNgbDAYEewAAAAAAAIApiQR7p9OJYA8AAAAAAAAwJXHBXq/Xnz59+tixY5988snHH3986NChsrKyg25VikKhUCgUCoVCoVAoFOqmFxfLmSJRnQR2EttJeCcRngR5Eue5YN/Q0FBdXf3FF18cP378U6bIFKTKUSgUCoVCoVAoFAqFQt0CxeZ0NrOT8E4iPAnyJM5zwb6tra2xsbGmpoa8W1VVVVlZedZVZ1AoFAqFQqFQKBQKhUJ9pcVF9LNnSWAnsZ2EdxLhSZAncZ4L9p2dne3t7S0tLU1NTSTu19fXX/RUdSgUCoVCoVAoFAqFQqFuSnFRnF8ksJPYTsI7ifAkyJM4zwV7k8nU1dVFXhuZ6ujoIB+jUCgUCoVCoVAoFAqFuqWKBHY2uZMIT4I8ifNcsDebzVevXu3r6yNv9fT0dLsVmQ6FQqFQKBQKhUKhUCjUV1hcRGeKxHYS3kmEJ0GexHku2A8ODloslgFX9aNQKBQKhUKhUCgUCoW6JYuL7gMDJMiTOM8Fe5uryFukrCgUCoVCoVAoFAqFQqFuyWKTOxfjbTYa7J3O/wVxan8tFyTgNwAAAABJRU5ErkJggg==;" vertex="1" parent="1">
          <mxGeometry x="-630" y="1310" width="1352" height="78" as="geometry" />
        </mxCell>
        <mxCell id="KdTVUO_jPhQBWrvJSr6B-86" value="&lt;font style=&quot;font-size: 14px;&quot;&gt;&lt;span style=&quot;white-space: pre;&quot;&gt;	&lt;/span&gt;https://pilotage-enquetes.dev.insee.io/contacts/recherche?idUe=12345&lt;/font&gt;" style="html=1;strokeWidth=1;shadow=0;dashed=0;shape=mxgraph.ios7ui.url;fillColor=#e0e0e0;strokeColor=#c0c0c0;buttonText=;strokeColor2=#222222;fontColor=#222222;fontSize=8;spacingTop=2;align=left;" vertex="1" parent="1">
          <mxGeometry x="-630" y="1280" width="1350" height="30" as="geometry" />
        </mxCell>
        <mxCell id="KdTVUO_jPhQBWrvJSr6B-87" value="" style="group;" vertex="1" connectable="0" parent="1">
          <mxGeometry x="-600" y="1400" width="260" height="50" as="geometry" />
        </mxCell>
        <mxCell id="KdTVUO_jPhQBWrvJSr6B-88" value="&lt;div style=&quot;&quot;&gt;&lt;span style=&quot;font-size: 17px; background-color: initial; line-height: 0.6;&quot;&gt;&lt;font color=&quot;#828282&quot;&gt;Rechercher un contact....&lt;/font&gt;&lt;/span&gt;&lt;/div&gt;" style="rounded=1;whiteSpace=wrap;html=1;shadow=0;fontSize=25;align=right;fillColor=#EDF7FC;strokeColor=#86B2BF;" vertex="1" parent="KdTVUO_jPhQBWrvJSr6B-87">
          <mxGeometry width="260" height="50" as="geometry" />
        </mxCell>
        <mxCell id="KdTVUO_jPhQBWrvJSr6B-89" value="" style="shape=image;verticalLabelPosition=bottom;labelBackgroundColor=default;verticalAlign=top;aspect=fixed;imageAspect=0;image=data:image/png,iVBORw0KGgoAAAANSUhEUgAAAIkAAACLCAIAAADaji2VAAAAAXNSR0IArs4c6QAAAARnQU1BAACxjwv8YQUAAAAJcEhZcwAADsMAAA7DAcdvqGQAAAASdEVYdFNvZnR3YXJlAEdyZWVuc2hvdF5VCAUAAAVHSURBVHhe7Zu/SjNNFMbfW/kai1xCwMrCygswtRAQLO0tBMHKwkoQBAsLEbwACztJayGksrCxsrbze2AO4vvu7tnZzczmmfX5FaJm/iTnN2fObLL58yVYkRte5IYXueFFbniRG17khhe54UVueJEbXuSGF7nhRW54kRte5IYXueFFbniRG17khhe54UVueJEbXuSGF7nhRW54kRte5IYXueFFbniRG17khhe54UVueJEbXuSGF7nhpTA3z8/P9/f3FxcXZ2dn5+fn19fXj4+P7+/v9vC4KMMNfMzn88lk8l8D29vbp6eny+XSOowCdjeXl5fT6dQMRLC/v4/css6Fw+tmsVjs7OxYyDuCHLJRSobUzdXVlYW5L7PZrPQ6xOgGdd4CvBpbW1uvr682aIHQucEZzEKbApwRPj4+bOjS4HLz8PBgQU3H3t6ejV4aRG4+Pz83NzctoklBLtocRUHk5uTkxGKZmo2NjRLPBSxuEDsLZB6Oj49tpnJgcZPqbNbEZDLBnmmTFQKLG5x3LYrZuLu7s8kKgcLNcrm0+OXk4ODA5isECjc3NzcWv5xMp1ObrxAo3BwdHVn8MlPWdSiFm/l8bsHLzMvLi01ZAhRuZrOZBS8zi8XCpiwBueFFexovOgvwQuFGZ+haKNzo2rMWCjdA79lUYXGj9zqrsLjRZwRVWNwAfbb2D0Ru9Jn0PxC5AbqX4ydcboDugfqGzg3QvYMBRjdA99wCUjdA96rzugnoOx7s6LtRBZD2O4Vvb29PT0+3t7cYDT8B/sQ/7eF1U5ibJCD6kOFc5+IhNIAn67AmfpcbWNnd3TUDEUDSGg39Fjewcnh4aCHvCDraKMPyK9x0TZcqSKDh69D43WBTsgCvxvD728jdYLFbaFMwcPaM3M2KW1kV6LGh8zNmN8nFBDCsTZCZAtxgG8FGH64QAU5NiE7A2WFiygySAIRhMX4Y2R5zGabwMLpBxEO8WiNlHepo7YsG1vRvwuzWqIGmvmlhcRMiErlsA85lR2vSYC5r2kCrngFSZ81u8Apbo9AEdiEbpYJ/mRkZVoxvHepotbs663ETs2+04hQbVBFrVKHTduQ4xhTWKBtDu8GadQLXCRuxDmtRh7WIA/qtWx3O4kjCcG4SWgnYuBUwkbWo4JSoJpwSGLk39mYIN1hfnYp8DM6W4tSJHm6cvdcpeEnI7savqL1xyoYzY49oOlmY+ziQ103ydPnGceOs9B67UFrTncjoJp8Y4OxpaVe6c1Qr1U1WMaCfGyfbmnDOL0We01a/donBJqvgHHwR6K4BtZ51WItspHfjhCYtTvFwsrbTUc0Zx0ncVKR342zQaXGKh5+4kXXCOQWA3MUGpHfjbNBpcYqHU3IAnmHrocAXA3IXG5DejT33/Pi7SuthBPldG1/8M6avtc5JYjf+gk2OU3Jiyh7sQgMCjSwBSKZWK4EBkgaU7cZfv5GB7oHyph0sfGcJ46F8xW8APWW7AX6MYna23uTWU7wb/0QAytVTvBvQGqBCN7cxuAGY155BA9CT752kTHpG4sY/FHyDNp0Ob9CJVxQjNYeekbgBCLo9iTZCDjmSYBoNrHV0ziXXk9hNeBnrIiZ1foL2WEzfF574vWmEtehJ7GbEDK9HbjowsB656UaMnvjK5yM3nfH1pBID5KYPTXoSigFy05OqnrRigNz056ee5GKA3KxE0JNDDJCbVYEe+y01csOL3PAiN7zIDS9yw4vc8CI3vMgNL3LDi9zwIje8yA0vcsOL3PAiN7zIDS9yw4vc8CI3vMgNL3LDi9zwIjesfH39Dw3gkrMH0VRSAAAAAElFTkSuQmCC;" vertex="1" parent="KdTVUO_jPhQBWrvJSr6B-87">
          <mxGeometry x="10.579999999999984" y="5" width="39.42" height="40" as="geometry" />
        </mxCell>
        <mxCell id="KdTVUO_jPhQBWrvJSr6B-90" value="&lt;font color=&quot;#000000&quot; style=&quot;font-size: 18px;&quot;&gt;&lt;b&gt;RESULTATS DE LA RECHERCHE&lt;/b&gt;&lt;/font&gt;" style="text;html=1;strokeColor=none;fillColor=none;align=center;verticalAlign=middle;whiteSpace=wrap;rounded=0;shadow=0;fontSize=14;fontColor=#688A94;" vertex="1" parent="1">
          <mxGeometry x="-595" y="1480" width="315" height="30" as="geometry" />
        </mxCell>
        <mxCell id="KdTVUO_jPhQBWrvJSr6B-93" value="" style="group" vertex="1" connectable="0" parent="1">
          <mxGeometry x="-290" y="1410" width="202" height="30" as="geometry" />
        </mxCell>
        <mxCell id="KdTVUO_jPhQBWrvJSr6B-91" value="&lt;font style=&quot;font-size: 13px;&quot;&gt;&lt;b&gt;&amp;nbsp; &amp;nbsp;Id unité enquêtée&lt;/b&gt;&amp;nbsp;12345&lt;/font&gt;" style="rounded=1;whiteSpace=wrap;html=1;shadow=0;fontSize=18;align=left;arcSize=50;" vertex="1" parent="KdTVUO_jPhQBWrvJSr6B-93">
          <mxGeometry width="190.56603773584905" height="30" as="geometry" />
        </mxCell>
        <mxCell id="KdTVUO_jPhQBWrvJSr6B-92" value="" style="shape=image;verticalLabelPosition=bottom;labelBackgroundColor=default;verticalAlign=top;aspect=fixed;imageAspect=0;image=data:image/png,iVBORw0KGgoAAAANSUhEUgAAAD4AAAA+CAIAAAD8oz8TAAAAAXNSR0IArs4c6QAAAARnQU1BAACxjwv8YQUAAAAJcEhZcwAADsMAAA7DAcdvqGQAAAASdEVYdFNvZnR3YXJlAEdyZWVuc2hvdF5VCAUAAALxSURBVGhD7Zi7kuIwEEX3//9pQ1JCQkJC0g3ZU3SvkfW8emDXVs0JpspG6j5uWrKYX6//lh/1M/hRP4PF6n/ePJ/Px+Nxv9/5C1xy00esY4E6Wib6u8Xlcrndbgz2mXNMqaN7vV7dqweegYmTzzCojjTpXWQCghDKg3bSrU7jLpEOIeDAN9CnPtYeIgT3NBqqOmvxq94G5df3IkmdJvHY30dvnrY6gTzqUYhrt6F+ZL1DsCe1SxSoqdN2HukMmn1fUz9gXdbB3lVyFNVP9zY4OLhQQl79rBbPUmr6vLpYctsK/KITysl0v6hSapuMurgbbhEH7K0NWIWifXanz6gr4aJKdNmH7SvaR+mMWF0peTaQaJ8uO9E+LXysTmgfW6b0qmvap96GkjQ9nMXqPrDFgP2MN6Rf9U6967jSZT/pbUS75E69KxCI9ku8IeqZnbqyXCKa9qu8IeqZnboP6aRiv9Db8PlvPuoz58SSfZZhbwjPkh/1yXOLaD/jDeFK/ah3bS9ZmvaT3hC+mFaqQ8V+3hvC+B917vrnE+Dn4RKWxM9Xff6MXvE25u2/ot70Nibt88t0ZnMUvY0Z+/zmOKxe8uY+ln6xZ9je57/5qIN/3kPF2wastffJb3bqvf8FaHobq+yjdDv1rpUqehtL7MPtBXbqert3eRvz9j7hHzt1UHpmwNso2TcnQpo0VleOA5ybw03KUNJDak8opV5Rt0CsTiDlB0dkL3obob3oHf3IMGJ1UAoPm32Xt2H2ojekJYeMuh4R+wFvA3sxC8PcbE9GHeaPYgsJzy0heXUYLudaSiWHojpto6zXr5JdnRtFdTjdvtQqRk0dsPcwh1P3hoY6iHvlWrK7YURbHY7sHBI1621I6nCMPSlI5ClbqOpAUN4jnuQLVPbBLB3qBt+m+BbU0ZskpFsdKD/LaEn/ECQ9S4qMqBv2AMPfABOHpY1x9Q17BuXgYDWeNN5YoB7CYwCNy8MAlvzlkps+Yh2L1Y/j9foLASDFhHnLjSkAAAAASUVORK5CYII=;" vertex="1" parent="KdTVUO_jPhQBWrvJSr6B-93">
          <mxGeometry x="163.88543126684638" y="7.762499999999999" width="13.79732142857143" height="13.79732142857143" as="geometry" />
        </mxCell>
        <mxCell id="KdTVUO_jPhQBWrvJSr6B-99" value="" style="group" vertex="1" connectable="0" parent="1">
          <mxGeometry x="-580" y="1520" width="1030" height="90" as="geometry" />
        </mxCell>
        <mxCell id="KdTVUO_jPhQBWrvJSr6B-95" value="" style="rounded=1;whiteSpace=wrap;html=1;shadow=1;fontSize=13;" vertex="1" parent="KdTVUO_jPhQBWrvJSr6B-99">
          <mxGeometry width="1030" height="90" as="geometry" />
        </mxCell>
        <mxCell id="KdTVUO_jPhQBWrvJSr6B-96" value="" style="shape=image;verticalLabelPosition=bottom;labelBackgroundColor=default;verticalAlign=top;aspect=fixed;imageAspect=0;image=data:image/png,iVBORw0KGgoAAAANSUhEUgAAALoAAAC8CAIAAABANSO7AAAAAXNSR0IArs4c6QAAAARnQU1BAACxjwv8YQUAAAAJcEhZcwAADsMAAA7DAcdvqGQAAAASdEVYdFNvZnR3YXJlAEdyZWVuc2hvdF5VCAUAAAQZSURBVHhe7dztUSM5FIbRDWXjcB7k4TjIgzjIw3nwf29tqyh2FihebIGle86PKabAX/Qzklptz18v8GVyISAXAnIhIBcCciEgFwJyISAXAnIhIBcCciEgFwJyISAXAnIhIBcCciEgFwJyISAXAnIhIBcCciEgFwJyISAXAnIhIBcCciEgFwJyISAXAnIhIBcCciEgFwJyISAXAnIhIBcCciEgFwJyISAXAnIhIBcCciEgFwJyISAXAnIhIBcCcnm5XC7Pz89PT0+Pj4/1Z31dxvf4r6a5VCIVx/l8/vsDp9Opvlv1jBvwr465VCgjii+oburnxy3b65VLzTKjgpBoDo1yiQaVdymmSy4PDw/jmF+nFjTjHltqkcutWjl0Lmb/XOrsZhzn22k7K22ey7fXtp+rlW/PvZnNc7ntNPRW3fN4jE52zmXS0PKq4QCzcy7zhpZDwwFm51zGUZ2mVjDjkdrYNpcZJ0T/120+2jaXTy4f3lC3+WjbXGYvXA5y2UQtLMYhnanb8mXbXMbxnEwumxjHc77xeD2YjK5idNmEpe4M2+byMyfS3d7MsG0usy8YHbq993vbXC6XyzikM40Ha2PbXMrs5UvDt9XtnIs3MNzczrmUeQNMt3Oiw+a5zFvBNBxayua5lBnvZGj7Ydj9cynXfyDtrZ7T0KFFLscH6MfRvk7nVkqLXA4+9Hq9RrmUWnN879Jj3arn2vYPvXIp6cRUoRhUXrXL5VDR1Ejz+WXIWqYI5Q9Nc3lV3ZSaaKqeiqPU1+adj3TPhYhcCMiFgFwIyIWAXAjIhYBcCHTM5diae92XO5/PD2/UXw/1A8WW3Vstcjn2bauMqmHs8IdOp9NRUgU07rSlbXN5HT++dwn6c3WfPdPZLZeq5JpRJHWMOn262SeXCqX+xY/D+OOajDc75DJpxvmeeib1fMYz287audSBGUfpzuwazaq51JnO/YwoH6lnuNl5+JK53O2g8q6dhpnFcqn17I+d9dxQDTP1zMdrWNlKudRvfPz6F7RHMcvksui48tYGxSyTy+qtHOpVjNezpjVyefqR/+D/Zyy9lbdGLnsMLYeaksarWtACuSy9wn3XupsxC+Sy00x0kMtEa23KfcW6G3dy+QVymUgu90Muv0AuE8nlfsjlF8hlIrncD7n8ArlMJJf7sUAuxyfKdmJXlxbkQkAuBORCQC4E5EJALgTkQkAuBORCQC4E5EJALgTkQkAuBORCQC4E5EJALgTkQkAuBORCQC4E5EJALgTkQkAuBORCQC4E5EJALgTkQkAuBORCQC4E5EJALgTkQkAuBORCQC4E5EJALgTkQkAuBORCQC4E5EJALgTkQkAuBORCQC4E5EJALgTkQkAuBORCQC4E5EJALgTkQkAuBOTCl728/AMx+NAsw2WkOwAAAABJRU5ErkJggg==;" vertex="1" parent="KdTVUO_jPhQBWrvJSr6B-99">
          <mxGeometry x="10" y="10" width="59.36" height="60" as="geometry" />
        </mxCell>
        <mxCell id="KdTVUO_jPhQBWrvJSr6B-97" value="&lt;p style=&quot;line-height: 0;&quot;&gt;&lt;b&gt;IDEC&lt;/b&gt; : 015AHV&lt;/p&gt;&lt;p style=&quot;line-height: 0.7;&quot;&gt;Jean Registre&lt;br&gt;&lt;/p&gt;&lt;div style=&quot;&quot;&gt;&lt;span style=&quot;background-color: initial;&quot;&gt;jean.registre@cocorico.fr&lt;/span&gt;&lt;/div&gt;&lt;p&gt;&lt;/p&gt;" style="text;html=1;strokeColor=none;fillColor=none;align=left;verticalAlign=middle;whiteSpace=wrap;rounded=0;shadow=1;fontSize=13;fontColor=#000000;" vertex="1" parent="KdTVUO_jPhQBWrvJSr6B-99">
          <mxGeometry x="79.36000000000001" y="10" width="160.64" height="70" as="geometry" />
        </mxCell>
        <mxCell id="KdTVUO_jPhQBWrvJSr6B-116" value="" style="shape=image;verticalLabelPosition=bottom;labelBackgroundColor=default;verticalAlign=top;aspect=fixed;imageAspect=0;image=data:image/png,iVBORw0KGgoAAAANSUhEUgAAACcAAAAjCAIAAACYUIR0AAAAAXNSR0IArs4c6QAAAARnQU1BAACxjwv8YQUAAAAJcEhZcwAADsMAAA7DAcdvqGQAAAASdEVYdFNvZnR3YXJlAEdyZWVuc2hvdF5VCAUAAADgSURBVFhH7dXBDYQgEEDRbcVC7JE+LMRCLIT9WVgjOOjMGOKFfxuDvIQY+cQ3Gmrvhtq7ofZOVpdl2bYtD97YIYSQhzJBhZymaZ7nJzDvsgmJcK0mMuWGdzJ1hgv1SKYccEWmKrhQ13WFyQv/mWCRJHbOK37VJ/wEVpIkfE0+WE+SoJIVNpEkq6SHrSQ1VdLADpKuVLqGfSTdqNSCeZ6HsluS7lUSYTENSSqVNLCSJK1K17CeJINKLdhEkk0lbogKtpJkVokLZIcdJHlUSrCPJKdKxz+UNb/6pKH27g01xi+x+PBdorU3cQAAAABJRU5ErkJggg==;" vertex="1" parent="KdTVUO_jPhQBWrvJSr6B-99">
          <mxGeometry x="981" y="33.75" width="25.07" height="22.5" as="geometry" />
        </mxCell>
        <mxCell id="KdTVUO_jPhQBWrvJSr6B-129" value="" style="group" vertex="1" connectable="0" parent="KdTVUO_jPhQBWrvJSr6B-99">
          <mxGeometry x="760" y="10" width="202" height="30" as="geometry" />
        </mxCell>
        <mxCell id="KdTVUO_jPhQBWrvJSr6B-130" value="&lt;font style=&quot;font-size: 13px;&quot;&gt;&amp;nbsp; &amp;nbsp;Répond pour &lt;b&gt;3&lt;/b&gt; enquête(s)&lt;/font&gt;" style="rounded=1;whiteSpace=wrap;html=1;shadow=0;fontSize=18;align=left;arcSize=50;" vertex="1" parent="KdTVUO_jPhQBWrvJSr6B-129">
          <mxGeometry width="190.56603773584905" height="30" as="geometry" />
        </mxCell>
        <mxCell id="KdTVUO_jPhQBWrvJSr6B-100" value="" style="group" vertex="1" connectable="0" parent="1">
          <mxGeometry x="-580" y="1620" width="1030" height="200" as="geometry" />
        </mxCell>
        <mxCell id="KdTVUO_jPhQBWrvJSr6B-101" value="" style="rounded=1;whiteSpace=wrap;html=1;shadow=1;fontSize=13;arcSize=8;" vertex="1" parent="KdTVUO_jPhQBWrvJSr6B-100">
          <mxGeometry width="1030" height="200" as="geometry" />
        </mxCell>
        <mxCell id="KdTVUO_jPhQBWrvJSr6B-102" value="" style="shape=image;verticalLabelPosition=bottom;labelBackgroundColor=default;verticalAlign=top;aspect=fixed;imageAspect=0;image=data:image/png,iVBORw0KGgoAAAANSUhEUgAAALoAAAC8CAIAAABANSO7AAAAAXNSR0IArs4c6QAAAARnQU1BAACxjwv8YQUAAAAJcEhZcwAADsMAAA7DAcdvqGQAAAASdEVYdFNvZnR3YXJlAEdyZWVuc2hvdF5VCAUAAAQZSURBVHhe7dztUSM5FIbRDWXjcB7k4TjIgzjIw3nwf29tqyh2FihebIGle86PKabAX/Qzklptz18v8GVyISAXAnIhIBcCciEgFwJyISAXAnIhIBcCciEgFwJyISAXAnIhIBcCciEgFwJyISAXAnIhIBcCciEgFwJyISAXAnIhIBcCciEgFwJyISAXAnIhIBcCciEgFwJyISAXAnIhIBcCciEgFwJyISAXAnIhIBcCciEgFwJyISAXAnIhIBcCcnm5XC7Pz89PT0+Pj4/1Z31dxvf4r6a5VCIVx/l8/vsDp9Opvlv1jBvwr465VCgjii+oburnxy3b65VLzTKjgpBoDo1yiQaVdymmSy4PDw/jmF+nFjTjHltqkcutWjl0Lmb/XOrsZhzn22k7K22ey7fXtp+rlW/PvZnNc7ntNPRW3fN4jE52zmXS0PKq4QCzcy7zhpZDwwFm51zGUZ2mVjDjkdrYNpcZJ0T/120+2jaXTy4f3lC3+WjbXGYvXA5y2UQtLMYhnanb8mXbXMbxnEwumxjHc77xeD2YjK5idNmEpe4M2+byMyfS3d7MsG0usy8YHbq993vbXC6XyzikM40Ha2PbXMrs5UvDt9XtnIs3MNzczrmUeQNMt3Oiw+a5zFvBNBxayua5lBnvZGj7Ydj9cynXfyDtrZ7T0KFFLscH6MfRvk7nVkqLXA4+9Hq9RrmUWnN879Jj3arn2vYPvXIp6cRUoRhUXrXL5VDR1Ejz+WXIWqYI5Q9Nc3lV3ZSaaKqeiqPU1+adj3TPhYhcCMiFgFwIyIWAXAjIhYBcCHTM5diae92XO5/PD2/UXw/1A8WW3Vstcjn2bauMqmHs8IdOp9NRUgU07rSlbXN5HT++dwn6c3WfPdPZLZeq5JpRJHWMOn262SeXCqX+xY/D+OOajDc75DJpxvmeeib1fMYz287audSBGUfpzuwazaq51JnO/YwoH6lnuNl5+JK53O2g8q6dhpnFcqn17I+d9dxQDTP1zMdrWNlKudRvfPz6F7RHMcvksui48tYGxSyTy+qtHOpVjNezpjVyefqR/+D/Zyy9lbdGLnsMLYeaksarWtACuSy9wn3XupsxC+Sy00x0kMtEa23KfcW6G3dy+QVymUgu90Muv0AuE8nlfsjlF8hlIrncD7n8ArlMJJf7sUAuxyfKdmJXlxbkQkAuBORCQC4E5EJALgTkQkAuBORCQC4E5EJALgTkQkAuBORCQC4E5EJALgTkQkAuBORCQC4E5EJALgTkQkAuBORCQC4E5EJALgTkQkAuBORCQC4E5EJALgTkQkAuBORCQC4E5EJALgTkQkAuBORCQC4E5EJALgTkQkAuBORCQC4E5EJALgTkQkAuBORCQC4E5EJALgTkQkAuBOTCl728/AMx+NAsw2WkOwAAAABJRU5ErkJggg==;" vertex="1" parent="KdTVUO_jPhQBWrvJSr6B-100">
          <mxGeometry x="10" y="10" width="59.36" height="60" as="geometry" />
        </mxCell>
        <mxCell id="KdTVUO_jPhQBWrvJSr6B-103" value="&lt;p style=&quot;line-height: 0;&quot;&gt;&lt;b&gt;IDEC&lt;/b&gt; : 015AHV&lt;/p&gt;&lt;p style=&quot;line-height: 0.7;&quot;&gt;Jean Registre&lt;br&gt;&lt;/p&gt;&lt;div style=&quot;&quot;&gt;&lt;span style=&quot;background-color: initial;&quot;&gt;jean.registre@cocorico.fr&lt;/span&gt;&lt;/div&gt;&lt;p&gt;&lt;/p&gt;" style="text;html=1;strokeColor=none;fillColor=none;align=left;verticalAlign=middle;whiteSpace=wrap;rounded=0;shadow=1;fontSize=13;fontColor=#000000;" vertex="1" parent="KdTVUO_jPhQBWrvJSr6B-100">
          <mxGeometry x="79.36000000000001" y="10" width="160.64" height="70" as="geometry" />
        </mxCell>
        <mxCell id="KdTVUO_jPhQBWrvJSr6B-127" value="" style="shape=image;verticalLabelPosition=bottom;labelBackgroundColor=default;verticalAlign=top;aspect=fixed;imageAspect=0;image=data:image/png,iVBORw0KGgoAAAANSUhEUgAAACcAAAAjCAIAAACYUIR0AAAAAXNSR0IArs4c6QAAAARnQU1BAACxjwv8YQUAAAAJcEhZcwAADsMAAA7DAcdvqGQAAAASdEVYdFNvZnR3YXJlAEdyZWVuc2hvdF5VCAUAAADgSURBVFhH7dXBDYQgEEDRbcVC7JE+LMRCLIT9WVgjOOjMGOKFfxuDvIQY+cQ3Gmrvhtq7ofZOVpdl2bYtD97YIYSQhzJBhZymaZ7nJzDvsgmJcK0mMuWGdzJ1hgv1SKYccEWmKrhQ13WFyQv/mWCRJHbOK37VJ/wEVpIkfE0+WE+SoJIVNpEkq6SHrSQ1VdLADpKuVLqGfSTdqNSCeZ6HsluS7lUSYTENSSqVNLCSJK1K17CeJINKLdhEkk0lbogKtpJkVokLZIcdJHlUSrCPJKdKxz+UNb/6pKH27g01xi+x+PBdorU3cQAAAABJRU5ErkJggg==;rotation=-180;" vertex="1" parent="KdTVUO_jPhQBWrvJSr6B-100">
          <mxGeometry x="980" y="33.75" width="25.07" height="22.5" as="geometry" />
        </mxCell>
        <mxCell id="KdTVUO_jPhQBWrvJSr6B-132" value="" style="group" vertex="1" connectable="0" parent="KdTVUO_jPhQBWrvJSr6B-100">
          <mxGeometry x="760" y="20" width="202" height="30" as="geometry" />
        </mxCell>
        <mxCell id="KdTVUO_jPhQBWrvJSr6B-133" value="&lt;font style=&quot;font-size: 13px;&quot;&gt;&amp;nbsp; &amp;nbsp;Répond pour &lt;b&gt;1&lt;/b&gt;&amp;nbsp;enquête(s)&lt;/font&gt;" style="rounded=1;whiteSpace=wrap;html=1;shadow=0;fontSize=18;align=left;arcSize=50;" vertex="1" parent="KdTVUO_jPhQBWrvJSr6B-132">
          <mxGeometry width="190.56603773584905" height="30" as="geometry" />
        </mxCell>
        <mxCell id="KdTVUO_jPhQBWrvJSr6B-117" value="" style="group" vertex="1" connectable="0" parent="1">
          <mxGeometry x="-580" y="1830" width="1030" height="90" as="geometry" />
        </mxCell>
        <mxCell id="KdTVUO_jPhQBWrvJSr6B-118" value="" style="rounded=1;whiteSpace=wrap;html=1;shadow=1;fontSize=13;" vertex="1" parent="KdTVUO_jPhQBWrvJSr6B-117">
          <mxGeometry width="1030" height="90" as="geometry" />
        </mxCell>
        <mxCell id="KdTVUO_jPhQBWrvJSr6B-119" value="" style="shape=image;verticalLabelPosition=bottom;labelBackgroundColor=default;verticalAlign=top;aspect=fixed;imageAspect=0;image=data:image/png,iVBORw0KGgoAAAANSUhEUgAAALoAAAC8CAIAAABANSO7AAAAAXNSR0IArs4c6QAAAARnQU1BAACxjwv8YQUAAAAJcEhZcwAADsMAAA7DAcdvqGQAAAASdEVYdFNvZnR3YXJlAEdyZWVuc2hvdF5VCAUAAAQZSURBVHhe7dztUSM5FIbRDWXjcB7k4TjIgzjIw3nwf29tqyh2FihebIGle86PKabAX/Qzklptz18v8GVyISAXAnIhIBcCciEgFwJyISAXAnIhIBcCciEgFwJyISAXAnIhIBcCciEgFwJyISAXAnIhIBcCciEgFwJyISAXAnIhIBcCciEgFwJyISAXAnIhIBcCciEgFwJyISAXAnIhIBcCciEgFwJyISAXAnIhIBcCciEgFwJyISAXAnIhIBcCcnm5XC7Pz89PT0+Pj4/1Z31dxvf4r6a5VCIVx/l8/vsDp9Opvlv1jBvwr465VCgjii+oburnxy3b65VLzTKjgpBoDo1yiQaVdymmSy4PDw/jmF+nFjTjHltqkcutWjl0Lmb/XOrsZhzn22k7K22ey7fXtp+rlW/PvZnNc7ntNPRW3fN4jE52zmXS0PKq4QCzcy7zhpZDwwFm51zGUZ2mVjDjkdrYNpcZJ0T/120+2jaXTy4f3lC3+WjbXGYvXA5y2UQtLMYhnanb8mXbXMbxnEwumxjHc77xeD2YjK5idNmEpe4M2+byMyfS3d7MsG0usy8YHbq993vbXC6XyzikM40Ha2PbXMrs5UvDt9XtnIs3MNzczrmUeQNMt3Oiw+a5zFvBNBxayua5lBnvZGj7Ydj9cynXfyDtrZ7T0KFFLscH6MfRvk7nVkqLXA4+9Hq9RrmUWnN879Jj3arn2vYPvXIp6cRUoRhUXrXL5VDR1Ejz+WXIWqYI5Q9Nc3lV3ZSaaKqeiqPU1+adj3TPhYhcCMiFgFwIyIWAXAjIhYBcCHTM5diae92XO5/PD2/UXw/1A8WW3Vstcjn2bauMqmHs8IdOp9NRUgU07rSlbXN5HT++dwn6c3WfPdPZLZeq5JpRJHWMOn262SeXCqX+xY/D+OOajDc75DJpxvmeeib1fMYz287audSBGUfpzuwazaq51JnO/YwoH6lnuNl5+JK53O2g8q6dhpnFcqn17I+d9dxQDTP1zMdrWNlKudRvfPz6F7RHMcvksui48tYGxSyTy+qtHOpVjNezpjVyefqR/+D/Zyy9lbdGLnsMLYeaksarWtACuSy9wn3XupsxC+Sy00x0kMtEa23KfcW6G3dy+QVymUgu90Muv0AuE8nlfsjlF8hlIrncD7n8ArlMJJf7sUAuxyfKdmJXlxbkQkAuBORCQC4E5EJALgTkQkAuBORCQC4E5EJALgTkQkAuBORCQC4E5EJALgTkQkAuBORCQC4E5EJALgTkQkAuBORCQC4E5EJALgTkQkAuBORCQC4E5EJALgTkQkAuBORCQC4E5EJALgTkQkAuBORCQC4E5EJALgTkQkAuBORCQC4E5EJALgTkQkAuBORCQC4E5EJALgTkQkAuBOTCl728/AMx+NAsw2WkOwAAAABJRU5ErkJggg==;" vertex="1" parent="KdTVUO_jPhQBWrvJSr6B-117">
          <mxGeometry x="10" y="10" width="59.36" height="60" as="geometry" />
        </mxCell>
        <mxCell id="KdTVUO_jPhQBWrvJSr6B-120" value="&lt;p style=&quot;line-height: 0;&quot;&gt;&lt;b&gt;IDEC&lt;/b&gt; : 015AHV&lt;/p&gt;&lt;p style=&quot;line-height: 0.7;&quot;&gt;Jean Registre&lt;br&gt;&lt;/p&gt;&lt;div style=&quot;&quot;&gt;&lt;span style=&quot;background-color: initial;&quot;&gt;jean.registre@cocorico.fr&lt;/span&gt;&lt;/div&gt;&lt;p&gt;&lt;/p&gt;" style="text;html=1;strokeColor=none;fillColor=none;align=left;verticalAlign=middle;whiteSpace=wrap;rounded=0;shadow=1;fontSize=13;fontColor=#000000;" vertex="1" parent="KdTVUO_jPhQBWrvJSr6B-117">
          <mxGeometry x="79.36000000000001" y="10" width="160.64" height="70" as="geometry" />
        </mxCell>
        <mxCell id="KdTVUO_jPhQBWrvJSr6B-121" value="" style="shape=image;verticalLabelPosition=bottom;labelBackgroundColor=default;verticalAlign=top;aspect=fixed;imageAspect=0;image=data:image/png,iVBORw0KGgoAAAANSUhEUgAAACcAAAAjCAIAAACYUIR0AAAAAXNSR0IArs4c6QAAAARnQU1BAACxjwv8YQUAAAAJcEhZcwAADsMAAA7DAcdvqGQAAAASdEVYdFNvZnR3YXJlAEdyZWVuc2hvdF5VCAUAAADgSURBVFhH7dXBDYQgEEDRbcVC7JE+LMRCLIT9WVgjOOjMGOKFfxuDvIQY+cQ3Gmrvhtq7ofZOVpdl2bYtD97YIYSQhzJBhZymaZ7nJzDvsgmJcK0mMuWGdzJ1hgv1SKYccEWmKrhQ13WFyQv/mWCRJHbOK37VJ/wEVpIkfE0+WE+SoJIVNpEkq6SHrSQ1VdLADpKuVLqGfSTdqNSCeZ6HsluS7lUSYTENSSqVNLCSJK1K17CeJINKLdhEkk0lbogKtpJkVokLZIcdJHlUSrCPJKdKxz+UNb/6pKH27g01xi+x+PBdorU3cQAAAABJRU5ErkJggg==;" vertex="1" parent="KdTVUO_jPhQBWrvJSr6B-117">
          <mxGeometry x="981" y="33.75" width="25.07" height="22.5" as="geometry" />
        </mxCell>
        <mxCell id="KdTVUO_jPhQBWrvJSr6B-122" value="" style="group" vertex="1" connectable="0" parent="1">
          <mxGeometry x="-580" y="1930" width="1030" height="90" as="geometry" />
        </mxCell>
        <mxCell id="KdTVUO_jPhQBWrvJSr6B-123" value="" style="rounded=1;whiteSpace=wrap;html=1;shadow=1;fontSize=13;" vertex="1" parent="KdTVUO_jPhQBWrvJSr6B-122">
          <mxGeometry width="1030" height="90" as="geometry" />
        </mxCell>
        <mxCell id="KdTVUO_jPhQBWrvJSr6B-124" value="" style="shape=image;verticalLabelPosition=bottom;labelBackgroundColor=default;verticalAlign=top;aspect=fixed;imageAspect=0;image=data:image/png,iVBORw0KGgoAAAANSUhEUgAAALoAAAC8CAIAAABANSO7AAAAAXNSR0IArs4c6QAAAARnQU1BAACxjwv8YQUAAAAJcEhZcwAADsMAAA7DAcdvqGQAAAASdEVYdFNvZnR3YXJlAEdyZWVuc2hvdF5VCAUAAAQZSURBVHhe7dztUSM5FIbRDWXjcB7k4TjIgzjIw3nwf29tqyh2FihebIGle86PKabAX/Qzklptz18v8GVyISAXAnIhIBcCciEgFwJyISAXAnIhIBcCciEgFwJyISAXAnIhIBcCciEgFwJyISAXAnIhIBcCciEgFwJyISAXAnIhIBcCciEgFwJyISAXAnIhIBcCciEgFwJyISAXAnIhIBcCciEgFwJyISAXAnIhIBcCciEgFwJyISAXAnIhIBcCcnm5XC7Pz89PT0+Pj4/1Z31dxvf4r6a5VCIVx/l8/vsDp9Opvlv1jBvwr465VCgjii+oburnxy3b65VLzTKjgpBoDo1yiQaVdymmSy4PDw/jmF+nFjTjHltqkcutWjl0Lmb/XOrsZhzn22k7K22ey7fXtp+rlW/PvZnNc7ntNPRW3fN4jE52zmXS0PKq4QCzcy7zhpZDwwFm51zGUZ2mVjDjkdrYNpcZJ0T/120+2jaXTy4f3lC3+WjbXGYvXA5y2UQtLMYhnanb8mXbXMbxnEwumxjHc77xeD2YjK5idNmEpe4M2+byMyfS3d7MsG0usy8YHbq993vbXC6XyzikM40Ha2PbXMrs5UvDt9XtnIs3MNzczrmUeQNMt3Oiw+a5zFvBNBxayua5lBnvZGj7Ydj9cynXfyDtrZ7T0KFFLscH6MfRvk7nVkqLXA4+9Hq9RrmUWnN879Jj3arn2vYPvXIp6cRUoRhUXrXL5VDR1Ejz+WXIWqYI5Q9Nc3lV3ZSaaKqeiqPU1+adj3TPhYhcCMiFgFwIyIWAXAjIhYBcCHTM5diae92XO5/PD2/UXw/1A8WW3Vstcjn2bauMqmHs8IdOp9NRUgU07rSlbXN5HT++dwn6c3WfPdPZLZeq5JpRJHWMOn262SeXCqX+xY/D+OOajDc75DJpxvmeeib1fMYz287audSBGUfpzuwazaq51JnO/YwoH6lnuNl5+JK53O2g8q6dhpnFcqn17I+d9dxQDTP1zMdrWNlKudRvfPz6F7RHMcvksui48tYGxSyTy+qtHOpVjNezpjVyefqR/+D/Zyy9lbdGLnsMLYeaksarWtACuSy9wn3XupsxC+Sy00x0kMtEa23KfcW6G3dy+QVymUgu90Muv0AuE8nlfsjlF8hlIrncD7n8ArlMJJf7sUAuxyfKdmJXlxbkQkAuBORCQC4E5EJALgTkQkAuBORCQC4E5EJALgTkQkAuBORCQC4E5EJALgTkQkAuBORCQC4E5EJALgTkQkAuBORCQC4E5EJALgTkQkAuBORCQC4E5EJALgTkQkAuBORCQC4E5EJALgTkQkAuBORCQC4E5EJALgTkQkAuBORCQC4E5EJALgTkQkAuBORCQC4E5EJALgTkQkAuBOTCl728/AMx+NAsw2WkOwAAAABJRU5ErkJggg==;" vertex="1" parent="KdTVUO_jPhQBWrvJSr6B-122">
          <mxGeometry x="10" y="10" width="59.36" height="60" as="geometry" />
        </mxCell>
        <mxCell id="KdTVUO_jPhQBWrvJSr6B-125" value="&lt;p style=&quot;line-height: 0;&quot;&gt;&lt;b&gt;IDEC&lt;/b&gt; : 015AHV&lt;/p&gt;&lt;p style=&quot;line-height: 0.7;&quot;&gt;Jean Registre&lt;br&gt;&lt;/p&gt;&lt;div style=&quot;&quot;&gt;&lt;span style=&quot;background-color: initial;&quot;&gt;jean.registre@cocorico.fr&lt;/span&gt;&lt;/div&gt;&lt;p&gt;&lt;/p&gt;" style="text;html=1;strokeColor=none;fillColor=none;align=left;verticalAlign=middle;whiteSpace=wrap;rounded=0;shadow=1;fontSize=13;fontColor=#000000;" vertex="1" parent="KdTVUO_jPhQBWrvJSr6B-122">
          <mxGeometry x="79.36000000000001" y="10" width="160.64" height="70" as="geometry" />
        </mxCell>
        <mxCell id="KdTVUO_jPhQBWrvJSr6B-126" value="" style="shape=image;verticalLabelPosition=bottom;labelBackgroundColor=default;verticalAlign=top;aspect=fixed;imageAspect=0;image=data:image/png,iVBORw0KGgoAAAANSUhEUgAAACcAAAAjCAIAAACYUIR0AAAAAXNSR0IArs4c6QAAAARnQU1BAACxjwv8YQUAAAAJcEhZcwAADsMAAA7DAcdvqGQAAAASdEVYdFNvZnR3YXJlAEdyZWVuc2hvdF5VCAUAAADgSURBVFhH7dXBDYQgEEDRbcVC7JE+LMRCLIT9WVgjOOjMGOKFfxuDvIQY+cQ3Gmrvhtq7ofZOVpdl2bYtD97YIYSQhzJBhZymaZ7nJzDvsgmJcK0mMuWGdzJ1hgv1SKYccEWmKrhQ13WFyQv/mWCRJHbOK37VJ/wEVpIkfE0+WE+SoJIVNpEkq6SHrSQ1VdLADpKuVLqGfSTdqNSCeZ6HsluS7lUSYTENSSqVNLCSJK1K17CeJINKLdhEkk0lbogKtpJkVokLZIcdJHlUSrCPJKdKxz+UNb/6pKH27g01xi+x+PBdorU3cQAAAABJRU5ErkJggg==;" vertex="1" parent="KdTVUO_jPhQBWrvJSr6B-122">
          <mxGeometry x="981" y="33.75" width="25.07" height="22.5" as="geometry" />
        </mxCell>
        <mxCell id="KdTVUO_jPhQBWrvJSr6B-128" value="" style="shape=image;verticalLabelPosition=bottom;labelBackgroundColor=default;verticalAlign=top;aspect=fixed;imageAspect=0;image=data:image/png,iVBORw0KGgoAAAANSUhEUgAAAIMAAAA8CAIAAADKY56RAAAAAXNSR0IArs4c6QAAAARnQU1BAACxjwv8YQUAAAAJcEhZcwAADsMAAA7DAcdvqGQAAAASdEVYdFNvZnR3YXJlAEdyZWVuc2hvdF5VCAUAAASUSURBVHhe7ZfBS+NKGMDf/zSnQEF4UFjoKRfLgy1evGwRC4XCwisiEZZ6aQ8WYffgBmEjLER4FJY8kHiQiNIFTREihaAQqAQK/gv7TTJJ02ib7jZtP8P86KEzU8eZ+c1838xfzxwccBNY4CawwE1ggZvAAjeBBW4CC9wEFrgJLHATWOAmsJCmiaurq9vbW1ZYMEdHR6enp6yQCVIzARr+83h6emJVC0PX9Z2dne3t7SzJSMdEqOHh4YFVLRhwkDEZKZhYvgafjMmY18SqNPhkScZcJlarwSczMuYyATcl38T9/T2rWjo3NzegAYA0zqreJvNGp9XKyIwGIIWMvSoZWdIApGACWL6MjGkA0jEBhDKW8LKDC0LGNACpmQBAxtLOBNyUsqQBSNMEZx64CSxwE1jgJrDATWCBm8ACN4EFbgIL3AQWuAkscBNY4CawwE1ggZvAAjeBBW4CC9wEFrgJLHATWOAmsBAzYSsfSBThXbFyoNtD1rwMHk3tc61UVWxWnsx1u1Bod1+ObWjr0MM7wRt/SToxXdYQNP1Np7YmVho/LFaPgNdM7GnOo+N9bPNMrotE2FKsxctwetqXj6U1ukqEfEg04ep7Qun45VK6xr5IxLp8YdHxq5JISPAz12jRJuXaDpoE6WykabW8ZmLfYCUf2Hqk0P7JSouir5R9Bz6JJh7VCqmoj6w0wlbL4+urfwp6czo1QqT/wyZX2yVkV0OiYgYTlrJJSOPC+27rsG3zOVgqIb8hKTeRWQxMZdfb0bl8eV9TYP5hP0PHOA5iwvuafOmw+ii21m4pxp1rnXhGkkw4IOLVRbyDfmQj8h+MlkBqHVoxdOGgu6PD7ZnwmxCQZGJgqv+KJCfpMOlhtw2He081+xC4LOOwLORqHbYrbXVLCGKCZRxDSAv7oeFCWG+oPYgJfpM45YTZM5mw5PezBZaB3igIkXMwwrlol4jYvJyhk6WQkLEBYb3O9n5sT3nxhJ2VnlyECHbtffegMcE3QX9WlHteLcVRq0RojR+7CDOZmJSrYwwtZUsQ4rveaHjzIiRf+/5mMrbjDFgDox9GJwYzcQGzk6LBwtgPTNCmF0yOCTOYmJSrxxlaanVN2JLN2BTg7/3LyI9mKSeUv0+PgstjhjwR4uoSDP3QsNjc6OZiJs7pVz2ySUcmaJPUsQO1/seZGBOSTbiaRMpKn5VeZ+joEBI32t2ohnieeDa/Fsk/sslKK+Z3TNDdHVmCgVafJTp5TY3zyNJPjSqJJmiurqpT06yfmZpG7DTQq8fYIN+sCXpxhIytdO+8d8Y6fToxE/SGGGTsvql/rtBLFOsHgskayZWaZ5DMHbunNTfytc7EHZ9kIjFXw6OhKOTrHWvsFHpHwb9WSN7dIYhOJ1hSxe+YgPW+/FIR6SLDA7V9rjZyZPNbMJPILba0q8p7kX7ij96uM/lYJJhIztVhQh6D7RgYyUFFDN/YauT5vWpiJuZgbHWo0SkXpD+me1AoHHZZIVukZcJWq/nNA40+Nfqm1ipBFFj4szxbpHcmYs/vn0ierm+G9Exw5oObwAI3gYPn519oJ+lOdU65SwAAAABJRU5ErkJggg==;" vertex="1" parent="1">
          <mxGeometry x="-580" y="2030" width="131" height="60" as="geometry" />
        </mxCell>
      </root>
    </mxGraphModel>
  </diagram>
</mxfile>
